REM GoldWave
FILE "Зазнобин В.М. Беседы по теории суперсистем, часть 1 (июнь 2006 г.).m4a" BINARY
  TRACK 01 AUDIO
    TITLE "00:00:00.00000"
    PERFORMER "Владимир Михайлович Зазнобин. Видеоархив"
    INDEX 01 00:00:00
  TRACK 02 AUDIO
    TITLE "00:00:13.90032"
    PERFORMER "Владимир Михайлович Зазнобин. Видеоархив"
    INDEX 01 00:13:68
  TRACK 03 AUDIO
    TITLE "00:00:40.02873"
    PERFORMER "Владимир Михайлович Зазнобин. Видеоархив"
    INDEX 01 00:40:02
  TRACK 04 AUDIO
    TITLE "00:00:56.17302"
    PERFORMER "Владимир Михайлович Зазнобин. Видеоархив"
    INDEX 01 00:56:13
  TRACK 05 AUDIO
    TITLE "00:01:09.17705"
    PERFORMER "Владимир Михайлович Зазнобин. Видеоархив"
    INDEX 01 01:09:13
  TRACK 06 AUDIO
    TITLE "00:01:23.59658"
    PERFORMER "Владимир Михайлович Зазнобин. Видеоархив"
    INDEX 01 01:23:45
  TRACK 07 AUDIO
    TITLE "00:01:37.00741"
    PERFORMER "Владимир Михайлович Зазнобин. Видеоархив"
    INDEX 01 01:37:01
  TRACK 08 AUDIO
    TITLE "00:01:50.55293"
    PERFORMER "Владимир Михайлович Зазнобин. Видеоархив"
    INDEX 01 01:50:41
  TRACK 09 AUDIO
    TITLE "00:02:04.81549"
    PERFORMER "Владимир Михайлович Зазнобин. Видеоархив"
    INDEX 01 02:04:61
  TRACK 10 AUDIO
    TITLE "00:02:19.37478"
    PERFORMER "Владимир Михайлович Зазнобин. Видеоархив"
    INDEX 01 02:19:28
  TRACK 11 AUDIO
    TITLE "00:02:37.83134"
    PERFORMER "Владимир Михайлович Зазнобин. Видеоархив"
    INDEX 01 02:37:62
  TRACK 12 AUDIO
    TITLE "00:02:53.56000"
    PERFORMER "Владимир Михайлович Зазнобин. Видеоархив"
    INDEX 01 02:53:42
  TRACK 13 AUDIO
    TITLE "00:03:07.79143"
    PERFORMER "Владимир Михайлович Зазнобин. Видеоархив"
    INDEX 01 03:07:59
  TRACK 14 AUDIO
    TITLE "00:03:21.02952"
    PERFORMER "Владимир Михайлович Зазнобин. Видеоархив"
    INDEX 01 03:21:02
  TRACK 15 AUDIO
    TITLE "00:03:36.26499"
    PERFORMER "Владимир Михайлович Зазнобин. Видеоархив"
    INDEX 01 03:36:20
  TRACK 16 AUDIO
    TITLE "00:03:49.25322"
    PERFORMER "Владимир Михайлович Зазнобин. Видеоархив"
    INDEX 01 03:49:19
  TRACK 17 AUDIO
    TITLE "00:04:04.01639"
    PERFORMER "Владимир Михайлович Зазнобин. Видеоархив"
    INDEX 01 04:04:01
  TRACK 18 AUDIO
    TITLE "00:04:18.09179"
    PERFORMER "Владимир Михайлович Зазнобин. Видеоархив"
    INDEX 01 04:18:07
  TRACK 19 AUDIO
    TITLE "00:04:31.34150"
    PERFORMER "Владимир Михайлович Зазнобин. Видеоархив"
    INDEX 01 04:31:26
  TRACK 20 AUDIO
    TITLE "00:04:44.46256"
    PERFORMER "Владимир Михайлович Зазнобин. Видеоархив"
    INDEX 01 04:44:35
  TRACK 21 AUDIO
    TITLE "00:04:58.73440"
    PERFORMER "Владимир Михайлович Зазнобин. Видеоархив"
    INDEX 01 04:58:55
  TRACK 22 AUDIO
    TITLE "00:05:13.06476"
    PERFORMER "Владимир Михайлович Зазнобин. Видеоархив"
    INDEX 01 05:13:05
  TRACK 23 AUDIO
    TITLE "00:05:28.87980"
    PERFORMER "Владимир Михайлович Зазнобин. Видеоархив"
    INDEX 01 05:28:66
  TRACK 24 AUDIO
    TITLE "00:05:43.27469"
    PERFORMER "Владимир Михайлович Зазнобин. Видеоархив"
    INDEX 01 05:43:21
  TRACK 25 AUDIO
    TITLE "00:05:56.76263"
    PERFORMER "Владимир Михайлович Зазнобин. Видеоархив"
    INDEX 01 05:56:57
  TRACK 26 AUDIO
    TITLE "00:06:09.89020"
    PERFORMER "Владимир Михайлович Зазнобин. Видеоархив"
    INDEX 01 06:09:67
  TRACK 27 AUDIO
    TITLE "00:06:23.54902"
    PERFORMER "Владимир Михайлович Зазнобин. Видеоархив"
    INDEX 01 06:23:41
  TRACK 28 AUDIO
    TITLE "00:06:36.89578"
    PERFORMER "Владимир Михайлович Зазнобин. Видеоархив"
    INDEX 01 06:36:67
  TRACK 29 AUDIO
    TITLE "00:06:51.75138"
    PERFORMER "Владимир Михайлович Зазнобин. Видеоархив"
    INDEX 01 06:51:56
  TRACK 30 AUDIO
    TITLE "00:07:04.97785"
    PERFORMER "Владимир Михайлович Зазнобин. Видеоархив"
    INDEX 01 07:04:73
  TRACK 31 AUDIO
    TITLE "00:07:19.51533"
    PERFORMER "Владимир Михайлович Зазнобин. Видеоархив"
    INDEX 01 07:19:39
  TRACK 32 AUDIO
    TITLE "00:07:33.01163"
    PERFORMER "Владимир Михайлович Зазнобин. Видеоархив"
    INDEX 01 07:33:01
  TRACK 33 AUDIO
    TITLE "00:07:46.99508"
    PERFORMER "Владимир Михайлович Зазнобин. Видеоархив"
    INDEX 01 07:47:00
  TRACK 34 AUDIO
    TITLE "00:07:59.81333"
    PERFORMER "Владимир Михайлович Зазнобин. Видеоархив"
    INDEX 01 07:59:61
  TRACK 35 AUDIO
    TITLE "00:08:12.57404"
    PERFORMER "Владимир Михайлович Зазнобин. Видеоархив"
    INDEX 01 08:12:43
  TRACK 36 AUDIO
    TITLE "00:08:26.20175"
    PERFORMER "Владимир Михайлович Зазнобин. Видеоархив"
    INDEX 01 08:26:15
  TRACK 37 AUDIO
    TITLE "00:08:39.17698"
    PERFORMER "Владимир Михайлович Зазнобин. Видеоархив"
    INDEX 01 08:39:13
  TRACK 38 AUDIO
    TITLE "00:08:52.60363"
    PERFORMER "Владимир Михайлович Зазнобин. Видеоархив"
    INDEX 01 08:52:45
  TRACK 39 AUDIO
    TITLE "00:09:07.14714"
    PERFORMER "Владимир Михайлович Зазнобин. Видеоархив"
    INDEX 01 09:07:11
  TRACK 40 AUDIO
    TITLE "00:09:21.16821"
    PERFORMER "Владимир Михайлович Зазнобин. Видеоархив"
    INDEX 01 09:21:13
  TRACK 41 AUDIO
    TITLE "00:09:34.87488"
    PERFORMER "Владимир Михайлович Зазнобин. Видеоархив"
    INDEX 01 09:34:66
  TRACK 42 AUDIO
    TITLE "00:09:49.24424"
    PERFORMER "Владимир Михайлович Зазнобин. Видеоархив"
    INDEX 01 09:49:18
  TRACK 43 AUDIO
    TITLE "00:10:05.11220"
    PERFORMER "Владимир Михайлович Зазнобин. Видеоархив"
    INDEX 01 10:05:08
  TRACK 44 AUDIO
    TITLE "00:10:18.53977"
    PERFORMER "Владимир Михайлович Зазнобин. Видеоархив"
    INDEX 01 10:18:40
  TRACK 45 AUDIO
    TITLE "00:10:33.05263"
    PERFORMER "Владимир Михайлович Зазнобин. Видеоархив"
    INDEX 01 10:33:04
  TRACK 46 AUDIO
    TITLE "00:10:47.81488"
    PERFORMER "Владимир Михайлович Зазнобин. Видеоархив"
    INDEX 01 10:47:61
  TRACK 47 AUDIO
    TITLE "00:11:01.26240"
    PERFORMER "Владимир Михайлович Зазнобин. Видеоархив"
    INDEX 01 11:01:20
  TRACK 48 AUDIO
    TITLE "00:11:15.03873"
    PERFORMER "Владимир Михайлович Зазнобин. Видеоархив"
    INDEX 01 11:15:03
  TRACK 49 AUDIO
    TITLE "00:11:28.05764"
    PERFORMER "Владимир Михайлович Зазнобин. Видеоархив"
    INDEX 01 11:28:04
  TRACK 50 AUDIO
    TITLE "00:11:43.08179"
    PERFORMER "Владимир Михайлович Зазнобин. Видеоархив"
    INDEX 01 11:43:06
  TRACK 51 AUDIO
    TITLE "00:11:57.39823"
    PERFORMER "Владимир Михайлович Зазнобин. Видеоархив"
    INDEX 01 11:57:30
  TRACK 52 AUDIO
    TITLE "00:12:11.47270"
    PERFORMER "Владимир Михайлович Зазнобин. Видеоархив"
    INDEX 01 12:11:35
  TRACK 53 AUDIO
    TITLE "00:12:27.68943"
    PERFORMER "Владимир Михайлович Зазнобин. Видеоархив"
    INDEX 01 12:27:52
  TRACK 54 AUDIO
    TITLE "00:12:41.66034"
    PERFORMER "Владимир Михайлович Зазнобин. Видеоархив"
    INDEX 01 12:41:50
  TRACK 55 AUDIO
    TITLE "00:12:55.60014"
    PERFORMER "Владимир Михайлович Зазнобин. Видеоархив"
    INDEX 01 12:55:45
  TRACK 56 AUDIO
    TITLE "00:13:09.61469"
    PERFORMER "Владимир Михайлович Зазнобин. Видеоархив"
    INDEX 01 13:09:46
  TRACK 57 AUDIO
    TITLE "00:13:24.08671"
    PERFORMER "Владимир Михайлович Зазнобин. Видеоархив"
    INDEX 01 13:24:07
  TRACK 58 AUDIO
    TITLE "00:13:37.21891"
    PERFORMER "Владимир Михайлович Зазнобин. Видеоархив"
    INDEX 01 13:37:16
  TRACK 59 AUDIO
    TITLE "00:13:50.07016"
    PERFORMER "Владимир Михайлович Зазнобин. Видеоархив"
    INDEX 01 13:50:05
  TRACK 60 AUDIO
    TITLE "00:14:04.47712"
    PERFORMER "Владимир Михайлович Зазнобин. Видеоархив"
    INDEX 01 14:04:36
  TRACK 61 AUDIO
    TITLE "00:14:19.36707"
    PERFORMER "Владимир Михайлович Зазнобин. Видеоархив"
    INDEX 01 14:19:28
  TRACK 62 AUDIO
    TITLE "00:14:32.34837"
    PERFORMER "Владимир Михайлович Зазнобин. Видеоархив"
    INDEX 01 14:32:26
  TRACK 63 AUDIO
    TITLE "00:14:45.43878"
    PERFORMER "Владимир Михайлович Зазнобин. Видеоархив"
    INDEX 01 14:45:33
  TRACK 64 AUDIO
    TITLE "00:14:59.19281"
    PERFORMER "Владимир Михайлович Зазнобин. Видеоархив"
    INDEX 01 14:59:14
  TRACK 65 AUDIO
    TITLE "00:15:12.44621"
    PERFORMER "Владимир Михайлович Зазнобин. Видеоархив"
    INDEX 01 15:12:33
  TRACK 66 AUDIO
    TITLE "00:15:25.29977"
    PERFORMER "Владимир Михайлович Зазнобин. Видеоархив"
    INDEX 01 15:25:22
  TRACK 67 AUDIO
    TITLE "00:15:38.25737"
    PERFORMER "Владимир Михайлович Зазнобин. Видеоархив"
    INDEX 01 15:38:19
  TRACK 68 AUDIO
    TITLE "00:15:51.81451"
    PERFORMER "Владимир Михайлович Зазнобин. Видеоархив"
    INDEX 01 15:51:61
  TRACK 69 AUDIO
    TITLE "00:16:05.46172"
    PERFORMER "Владимир Михайлович Зазнобин. Видеоархив"
    INDEX 01 16:05:35
  TRACK 70 AUDIO
    TITLE "00:16:19.40617"
    PERFORMER "Владимир Михайлович Зазнобин. Видеоархив"
    INDEX 01 16:19:30
  TRACK 71 AUDIO
    TITLE "00:16:34.64211"
    PERFORMER "Владимир Михайлович Зазнобин. Видеоархив"
    INDEX 01 16:34:48
  TRACK 72 AUDIO
    TITLE "00:16:49.56084"
    PERFORMER "Владимир Михайлович Зазнобин. Видеоархив"
    INDEX 01 16:49:42
  TRACK 73 AUDIO
    TITLE "00:17:02.95544"
    PERFORMER "Владимир Михайлович Зазнобин. Видеоархив"
    INDEX 01 17:02:72
  TRACK 74 AUDIO
    TITLE "00:17:17.92388"
    PERFORMER "Владимир Михайлович Зазнобин. Видеоархив"
    INDEX 01 17:17:69
  TRACK 75 AUDIO
    TITLE "00:17:32.66383"
    PERFORMER "Владимир Михайлович Зазнобин. Видеоархив"
    INDEX 01 17:32:50
  TRACK 76 AUDIO
    TITLE "00:17:46.57855"
    PERFORMER "Владимир Михайлович Зазнобин. Видеоархив"
    INDEX 01 17:46:43
  TRACK 77 AUDIO
    TITLE "00:18:00.49374"
    PERFORMER "Владимир Михайлович Зазнобин. Видеоархив"
    INDEX 01 18:00:37
  TRACK 78 AUDIO
    TITLE "00:18:15.53508"
    PERFORMER "Владимир Михайлович Зазнобин. Видеоархив"
    INDEX 01 18:15:40
  TRACK 79 AUDIO
    TITLE "00:18:32.14331"
    PERFORMER "Владимир Михайлович Зазнобин. Видеоархив"
    INDEX 01 18:32:11
  TRACK 80 AUDIO
    TITLE "00:18:45.63542"
    PERFORMER "Владимир Михайлович Зазнобин. Видеоархив"
    INDEX 01 18:45:48
  TRACK 81 AUDIO
    TITLE "00:18:58.58837"
    PERFORMER "Владимир Михайлович Зазнобин. Видеоархив"
    INDEX 01 18:58:44
  TRACK 82 AUDIO
    TITLE "00:19:12.68515"
    PERFORMER "Владимир Михайлович Зазнобин. Видеоархив"
    INDEX 01 19:12:51
  TRACK 83 AUDIO
    TITLE "00:19:26.22649"
    PERFORMER "Владимир Михайлович Зазнобин. Видеоархив"
    INDEX 01 19:26:17
  TRACK 84 AUDIO
    TITLE "00:19:41.74986"
    PERFORMER "Владимир Михайлович Зазнобин. Видеоархив"
    INDEX 01 19:41:56
  TRACK 85 AUDIO
    TITLE "00:19:55.10685"
    PERFORMER "Владимир Михайлович Зазнобин. Видеоархив"
    INDEX 01 19:55:08
  TRACK 86 AUDIO
    TITLE "00:20:08.16615"
    PERFORMER "Владимир Михайлович Зазнобин. Видеоархив"
    INDEX 01 20:08:12
  TRACK 87 AUDIO
    TITLE "00:20:21.94898"
    PERFORMER "Владимир Михайлович Зазнобин. Видеоархив"
    INDEX 01 20:21:71
  TRACK 88 AUDIO
    TITLE "00:20:35.79728"
    PERFORMER "Владимир Михайлович Зазнобин. Видеоархив"
    INDEX 01 20:35:60
  TRACK 89 AUDIO
    TITLE "00:20:49.52020"
    PERFORMER "Владимир Михайлович Зазнобин. Видеоархив"
    INDEX 01 20:49:39
  TRACK 90 AUDIO
    TITLE "00:21:02.47964"
    PERFORMER "Владимир Михайлович Зазнобин. Видеоархив"
    INDEX 01 21:02:36
  TRACK 91 AUDIO
    TITLE "00:21:17.43043"
    PERFORMER "Владимир Михайлович Зазнобин. Видеоархив"
    INDEX 01 21:17:32
  TRACK 92 AUDIO
    TITLE "00:21:30.64159"
    PERFORMER "Владимир Михайлович Зазнобин. Видеоархив"
    INDEX 01 21:30:48
  TRACK 93 AUDIO
    TITLE "00:21:45.36435"
    PERFORMER "Владимир Михайлович Зазнобин. Видеоархив"
    INDEX 01 21:45:27
  TRACK 94 AUDIO
    TITLE "00:21:59.09796"
    PERFORMER "Владимир Михайлович Зазнобин. Видеоархив"
    INDEX 01 21:59:07
  TRACK 95 AUDIO
    TITLE "00:22:12.95789"
    PERFORMER "Владимир Михайлович Зазнобин. Видеоархив"
    INDEX 01 22:12:72
  TRACK 96 AUDIO
    TITLE "00:22:26.10959"
    PERFORMER "Владимир Михайлович Зазнобин. Видеоархив"
    INDEX 01 22:26:08
  TRACK 97 AUDIO
    TITLE "00:22:42.14383"
    PERFORMER "Владимир Михайлович Зазнобин. Видеоархив"
    INDEX 01 22:42:11
  TRACK 98 AUDIO
    TITLE "00:22:55.67125"
    PERFORMER "Владимир Михайлович Зазнобин. Видеоархив"
    INDEX 01 22:55:50
  TRACK 99 AUDIO
    TITLE "00:23:08.57356"
    PERFORMER "Владимир Михайлович Зазнобин. Видеоархив"
    INDEX 01 23:08:43
  TRACK 100 AUDIO
    TITLE "00:23:23.16585"
    PERFORMER "Владимир Михайлович Зазнобин. Видеоархив"
    INDEX 01 23:23:12
  TRACK 101 AUDIO
    TITLE "00:23:39.33476"
    PERFORMER "Владимир Михайлович Зазнобин. Видеоархив"
    INDEX 01 23:39:25
  TRACK 102 AUDIO
    TITLE "00:23:53.50814"
    PERFORMER "Владимир Михайлович Зазнобин. Видеоархив"
    INDEX 01 23:53:38
  TRACK 103 AUDIO
    TITLE "00:24:06.52934"
    PERFORMER "Владимир Михайлович Зазнобин. Видеоархив"
    INDEX 01 24:06:40
  TRACK 104 AUDIO
    TITLE "00:24:19.61512"
    PERFORMER "Владимир Михайлович Зазнобин. Видеоархив"
    INDEX 01 24:19:46
  TRACK 105 AUDIO
    TITLE "00:24:32.73433"
    PERFORMER "Владимир Михайлович Зазнобин. Видеоархив"
    INDEX 01 24:32:55
  TRACK 106 AUDIO
    TITLE "00:24:46.57426"
    PERFORMER "Владимир Михайлович Зазнобин. Видеоархив"
    INDEX 01 24:46:43
  TRACK 107 AUDIO
    TITLE "00:24:59.72413"
    PERFORMER "Владимир Михайлович Зазнобин. Видеоархив"
    INDEX 01 24:59:54
  TRACK 108 AUDIO
    TITLE "00:25:13.34070"
    PERFORMER "Владимир Михайлович Зазнобин. Видеоархив"
    INDEX 01 25:13:26
  TRACK 109 AUDIO
    TITLE "00:25:28.68066"
    PERFORMER "Владимир Михайлович Зазнобин. Видеоархив"
    INDEX 01 25:28:51
  TRACK 110 AUDIO
    TITLE "00:25:43.02680"
    PERFORMER "Владимир Михайлович Зазнобин. Видеоархив"
    INDEX 01 25:43:02
  TRACK 111 AUDIO
    TITLE "00:25:59.63549"
    PERFORMER "Владимир Михайлович Зазнобин. Видеоархив"
    INDEX 01 25:59:48
  TRACK 112 AUDIO
    TITLE "00:26:13.22698"
    PERFORMER "Владимир Михайлович Зазнобин. Видеоархив"
    INDEX 01 26:13:17
  TRACK 113 AUDIO
    TITLE "00:26:26.87050"
    PERFORMER "Владимир Михайлович Зазнобин. Видеоархив"
    INDEX 01 26:26:65
  TRACK 114 AUDIO
    TITLE "00:26:43.12764"
    PERFORMER "Владимир Михайлович Зазнобин. Видеоархив"
    INDEX 01 26:43:10
  TRACK 115 AUDIO
    TITLE "00:26:56.81249"
    PERFORMER "Владимир Михайлович Зазнобин. Видеоархив"
    INDEX 01 26:56:61
  TRACK 116 AUDIO
    TITLE "00:27:09.75197"
    PERFORMER "Владимир Михайлович Зазнобин. Видеоархив"
    INDEX 01 27:09:56
  TRACK 117 AUDIO
    TITLE "00:27:23.14331"
    PERFORMER "Владимир Михайлович Зазнобин. Видеоархив"
    INDEX 01 27:23:11
  TRACK 118 AUDIO
    TITLE "00:27:37.09379"
    PERFORMER "Владимир Михайлович Зазнобин. Видеоархив"
    INDEX 01 27:37:07
  TRACK 119 AUDIO
    TITLE "00:27:51.04658"
    PERFORMER "Владимир Михайлович Зазнобин. Видеоархив"
    INDEX 01 27:51:03
  TRACK 120 AUDIO
    TITLE "00:28:04.92832"
    PERFORMER "Владимир Михайлович Зазнобин. Видеоархив"
    INDEX 01 28:04:70
  TRACK 121 AUDIO
    TITLE "00:28:19.07385"
    PERFORMER "Владимир Михайлович Зазнобин. Видеоархив"
    INDEX 01 28:19:06
  TRACK 122 AUDIO
    TITLE "00:28:32.46426"
    PERFORMER "Владимир Михайлович Зазнобин. Видеоархив"
    INDEX 01 28:32:35
  TRACK 123 AUDIO
    TITLE "00:28:46.64925"
    PERFORMER "Владимир Михайлович Зазнобин. Видеоархив"
    INDEX 01 28:46:49
  TRACK 124 AUDIO
    TITLE "00:28:59.92077"
    PERFORMER "Владимир Михайлович Зазнобин. Видеоархив"
    INDEX 01 28:59:69
  TRACK 125 AUDIO
    TITLE "00:29:14.90501"
    PERFORMER "Владимир Михайлович Зазнобин. Видеоархив"
    INDEX 01 29:14:68
  TRACK 126 AUDIO
    TITLE "00:29:30.21989"
    PERFORMER "Владимир Михайлович Зазнобин. Видеоархив"
    INDEX 01 29:30:16
  TRACK 127 AUDIO
    TITLE "00:29:46.02286"
    PERFORMER "Владимир Михайлович Зазнобин. Видеоархив"
    INDEX 01 29:46:02
  TRACK 128 AUDIO
    TITLE "00:30:00.18138"
    PERFORMER "Владимир Михайлович Зазнобин. Видеоархив"
    INDEX 01 30:00:14
  TRACK 129 AUDIO
    TITLE "00:30:13.65816"
    PERFORMER "Владимир Михайлович Зазнобин. Видеоархив"
    INDEX 01 30:13:49
  TRACK 130 AUDIO
    TITLE "00:30:26.54472"
    PERFORMER "Владимир Михайлович Зазнобин. Видеоархив"
    INDEX 01 30:26:41
  TRACK 131 AUDIO
    TITLE "00:30:39.44703"
    PERFORMER "Владимир Михайлович Зазнобин. Видеоархив"
    INDEX 01 30:39:34
  TRACK 132 AUDIO
    TITLE "00:30:53.63249"
    PERFORMER "Владимир Михайлович Зазнобин. Видеоархив"
    INDEX 01 30:53:47
  TRACK 133 AUDIO
    TITLE "00:31:07.16687"
    PERFORMER "Владимир Михайлович Зазнобин. Видеоархив"
    INDEX 01 31:07:13
  TRACK 134 AUDIO
    TITLE "00:31:20.14628"
    PERFORMER "Владимир Михайлович Зазнобин. Видеоархив"
    INDEX 01 31:20:11
  TRACK 135 AUDIO
    TITLE "00:31:34.49522"
    PERFORMER "Владимир Михайлович Зазнобин. Видеоархив"
    INDEX 01 31:34:37
  TRACK 136 AUDIO
    TITLE "00:31:49.54261"
    PERFORMER "Владимир Михайлович Зазнобин. Видеоархив"
    INDEX 01 31:49:41
  TRACK 137 AUDIO
    TITLE "00:32:04.35780"
    PERFORMER "Владимир Михайлович Зазнобин. Видеоархив"
    INDEX 01 32:04:27
  TRACK 138 AUDIO
    TITLE "00:32:19.95642"
    PERFORMER "Владимир Михайлович Зазнобин. Видеоархив"
    INDEX 01 32:19:72
  TRACK 139 AUDIO
    TITLE "00:32:33.84188"
    PERFORMER "Владимир Михайлович Зазнобин. Видеоархив"
    INDEX 01 32:33:63
  TRACK 140 AUDIO
    TITLE "00:32:47.76125"
    PERFORMER "Владимир Михайлович Зазнобин. Видеоархив"
    INDEX 01 32:47:57
  TRACK 141 AUDIO
    TITLE "00:33:01.09685"
    PERFORMER "Владимир Михайлович Зазнобин. Видеоархив"
    INDEX 01 33:01:07
  TRACK 142 AUDIO
    TITLE "00:33:14.91683"
    PERFORMER "Владимир Михайлович Зазнобин. Видеоархив"
    INDEX 01 33:14:69
  TRACK 143 AUDIO
    TITLE "00:33:28.24177"
    PERFORMER "Владимир Михайлович Зазнобин. Видеоархив"
    INDEX 01 33:28:18
  TRACK 144 AUDIO
    TITLE "00:33:42.49782"
    PERFORMER "Владимир Михайлович Зазнобин. Видеоархив"
    INDEX 01 33:42:37
  TRACK 145 AUDIO
    TITLE "00:33:57.39705"
    PERFORMER "Владимир Михайлович Зазнобин. Видеоархив"
    INDEX 01 33:57:30
  TRACK 146 AUDIO
    TITLE "00:34:12.27215"
    PERFORMER "Владимир Михайлович Зазнобин. Видеоархив"
    INDEX 01 34:12:20
  TRACK 147 AUDIO
    TITLE "00:34:26.10701"
    PERFORMER "Владимир Михайлович Зазнобин. Видеоархив"
    INDEX 01 34:26:08
  TRACK 148 AUDIO
    TITLE "00:34:39.91351"
    PERFORMER "Владимир Михайлович Зазнобин. Видеоархив"
    INDEX 01 34:39:69
  TRACK 149 AUDIO
    TITLE "00:34:52.83998"
    PERFORMER "Владимир Михайлович Зазнобин. Видеоархив"
    INDEX 01 34:52:63
  TRACK 150 AUDIO
    TITLE "00:35:05.91043"
    PERFORMER "Владимир Михайлович Зазнобин. Видеоархив"
    INDEX 01 35:05:68
  TRACK 151 AUDIO
    TITLE "00:35:21.80859"
    PERFORMER "Владимир Михайлович Зазнобин. Видеоархив"
    INDEX 01 35:21:61
  TRACK 152 AUDIO
    TITLE "00:35:37.72440"
    PERFORMER "Владимир Михайлович Зазнобин. Видеоархив"
    INDEX 01 35:37:54
  TRACK 153 AUDIO
    TITLE "00:35:52.62503"
    PERFORMER "Владимир Михайлович Зазнобин. Видеоархив"
    INDEX 01 35:52:47
  TRACK 154 AUDIO
    TITLE "00:36:06.41855"
    PERFORMER "Владимир Михайлович Зазнобин. Видеоархив"
    INDEX 01 36:06:31
  TRACK 155 AUDIO
    TITLE "00:36:20.14565"
    PERFORMER "Владимир Михайлович Зазнобин. Видеоархив"
    INDEX 01 36:20:11
  TRACK 156 AUDIO
    TITLE "00:36:34.50340"
    PERFORMER "Владимир Михайлович Зазнобин. Видеоархив"
    INDEX 01 36:34:38
  TRACK 157 AUDIO
    TITLE "00:36:47.81395"
    PERFORMER "Владимир Михайлович Зазнобин. Видеоархив"
    INDEX 01 36:47:61
  TRACK 158 AUDIO
    TITLE "00:37:04.32186"
    PERFORMER "Владимир Михайлович Зазнобин. Видеоархив"
    INDEX 01 37:04:24
  TRACK 159 AUDIO
    TITLE "00:37:17.79587"
    PERFORMER "Владимир Михайлович Зазнобин. Видеоархив"
    INDEX 01 37:17:60
  TRACK 160 AUDIO
    TITLE "00:37:32.35331"
    PERFORMER "Владимир Михайлович Зазнобин. Видеоархив"
    INDEX 01 37:32:26
  TRACK 161 AUDIO
    TITLE "00:37:45.70565"
    PERFORMER "Владимир Михайлович Зазнобин. Видеоархив"
    INDEX 01 37:45:53
  TRACK 162 AUDIO
    TITLE "00:37:58.90007"
    PERFORMER "Владимир Михайлович Зазнобин. Видеоархив"
    INDEX 01 37:58:68
  TRACK 163 AUDIO
    TITLE "00:38:12.68941"
    PERFORMER "Владимир Михайлович Зазнобин. Видеоархив"
    INDEX 01 38:12:52
  TRACK 164 AUDIO
    TITLE "00:38:25.91635"
    PERFORMER "Владимир Михайлович Зазнобин. Видеоархив"
    INDEX 01 38:25:69
  TRACK 165 AUDIO
    TITLE "00:38:38.72116"
    PERFORMER "Владимир Михайлович Зазнобин. Видеоархив"
    INDEX 01 38:38:54
  TRACK 166 AUDIO
    TITLE "00:38:53.39934"
    PERFORMER "Владимир Михайлович Зазнобин. Видеоархив"
    INDEX 01 38:53:30
  TRACK 167 AUDIO
    TITLE "00:39:06.60678"
    PERFORMER "Владимир Михайлович Зазнобин. Видеоархив"
    INDEX 01 39:06:46
  TRACK 168 AUDIO
    TITLE "00:39:20.97288"
    PERFORMER "Владимир Михайлович Зазнобин. Видеоархив"
    INDEX 01 39:20:73
  TRACK 169 AUDIO
    TITLE "00:39:34.72229"
    PERFORMER "Владимир Михайлович Зазнобин. Видеоархив"
    INDEX 01 39:34:54
  TRACK 170 AUDIO
    TITLE "00:39:49.00712"
    PERFORMER "Владимир Михайлович Зазнобин. Видеоархив"
    INDEX 01 39:49:01
  TRACK 171 AUDIO
    TITLE "00:40:03.62356"
    PERFORMER "Владимир Михайлович Зазнобин. Видеоархив"
    INDEX 01 40:03:47
  TRACK 172 AUDIO
    TITLE "00:40:21.81351"
    PERFORMER "Владимир Михайлович Зазнобин. Видеоархив"
    INDEX 01 40:21:61
  TRACK 173 AUDIO
    TITLE "00:40:35.22993"
    PERFORMER "Владимир Михайлович Зазнобин. Видеоархив"
    INDEX 01 40:35:17
  TRACK 174 AUDIO
    TITLE "00:40:48.08351"
    PERFORMER "Владимир Михайлович Зазнобин. Видеоархив"
    INDEX 01 40:48:06
  TRACK 175 AUDIO
    TITLE "00:41:02.02794"
    PERFORMER "Владимир Михайлович Зазнобин. Видеоархив"
    INDEX 01 41:02:02
  TRACK 176 AUDIO
    TITLE "00:41:15.73277"
    PERFORMER "Владимир Михайлович Зазнобин. Видеоархив"
    INDEX 01 41:15:55
  TRACK 177 AUDIO
    TITLE "00:41:28.97317"
    PERFORMER "Владимир Михайлович Зазнобин. Видеоархив"
    INDEX 01 41:28:73
  TRACK 178 AUDIO
    TITLE "00:41:43.33093"
    PERFORMER "Владимир Михайлович Зазнобин. Видеоархив"
    INDEX 01 41:43:25
  TRACK 179 AUDIO
    TITLE "00:41:57.28141"
    PERFORMER "Владимир Михайлович Зазнобин. Видеоархив"
    INDEX 01 41:57:21
  TRACK 180 AUDIO
    TITLE "00:42:11.44642"
    PERFORMER "Владимир Михайлович Зазнобин. Видеоархив"
    INDEX 01 42:11:33
  TRACK 181 AUDIO
    TITLE "00:42:25.00077"
    PERFORMER "Владимир Михайлович Зазнобин. Видеоархив"
    INDEX 01 42:25:00
  TRACK 182 AUDIO
    TITLE "00:42:37.95138"
    PERFORMER "Владимир Михайлович Зазнобин. Видеоархив"
    INDEX 01 42:37:71
  TRACK 183 AUDIO
    TITLE "00:42:51.91766"
    PERFORMER "Владимир Михайлович Зазнобин. Видеоархив"
    INDEX 01 42:51:69
  TRACK 184 AUDIO
    TITLE "00:43:05.26859"
    PERFORMER "Владимир Михайлович Зазнобин. Видеоархив"
    INDEX 01 43:05:20
  TRACK 185 AUDIO
    TITLE "00:43:19.40948"
    PERFORMER "Владимир Михайлович Зазнобин. Видеоархив"
    INDEX 01 43:19:31
  TRACK 186 AUDIO
    TITLE "00:43:32.51057"
    PERFORMER "Владимир Михайлович Зазнобин. Видеоархив"
    INDEX 01 43:32:38
  TRACK 187 AUDIO
    TITLE "00:43:46.17590"
    PERFORMER "Владимир Михайлович Зазнобин. Видеоархив"
    INDEX 01 43:46:13
  TRACK 188 AUDIO
    TITLE "00:44:01.03150"
    PERFORMER "Владимир Михайлович Зазнобин. Видеоархив"
    INDEX 01 44:01:02
  TRACK 189 AUDIO
    TITLE "00:44:17.58771"
    PERFORMER "Владимир Михайлович Зазнобин. Видеоархив"
    INDEX 01 44:17:44
  TRACK 190 AUDIO
    TITLE "00:44:33.26435"
    PERFORMER "Владимир Михайлович Зазнобин. Видеоархив"
    INDEX 01 44:33:20
  TRACK 191 AUDIO
    TITLE "00:44:48.21469"
    PERFORMER "Владимир Михайлович Зазнобин. Видеоархив"
    INDEX 01 44:48:16
  TRACK 192 AUDIO
    TITLE "00:45:01.51639"
    PERFORMER "Владимир Михайлович Зазнобин. Видеоархив"
    INDEX 01 45:01:39
  TRACK 193 AUDIO
    TITLE "00:45:15.05587"
    PERFORMER "Владимир Михайлович Зазнобин. Видеоархив"
    INDEX 01 45:15:04
  TRACK 194 AUDIO
    TITLE "00:45:31.29073"
    PERFORMER "Владимир Михайлович Зазнобин. Видеоархив"
    INDEX 01 45:31:22
  TRACK 195 AUDIO
    TITLE "00:45:47.21909"
    PERFORMER "Владимир Михайлович Зазнобин. Видеоархив"
    INDEX 01 45:47:16
  TRACK 196 AUDIO
    TITLE "00:46:00.85007"
    PERFORMER "Владимир Михайлович Зазнобин. Видеоархив"
    INDEX 01 46:00:64
  TRACK 197 AUDIO
    TITLE "00:46:13.86941"
    PERFORMER "Владимир Михайлович Зазнобин. Видеоархив"
    INDEX 01 46:13:65
  TRACK 198 AUDIO
    TITLE "00:46:27.22082"
    PERFORMER "Владимир Михайлович Зазнобин. Видеоархив"
    INDEX 01 46:27:17
  TRACK 199 AUDIO
    TITLE "00:46:43.87966"
    PERFORMER "Владимир Михайлович Зазнобин. Видеоархив"
    INDEX 01 46:43:66
  TRACK 200 AUDIO
    TITLE "00:46:57.82828"
    PERFORMER "Владимир Михайлович Зазнобин. Видеоархив"
    INDEX 01 46:57:62
  TRACK 201 AUDIO
    TITLE "00:47:14.01020"
    PERFORMER "Владимир Михайлович Зазнобин. Видеоархив"
    INDEX 01 47:14:01
  TRACK 202 AUDIO
    TITLE "00:47:27.87707"
    PERFORMER "Владимир Михайлович Зазнобин. Видеоархив"
    INDEX 01 47:27:66
  TRACK 203 AUDIO
    TITLE "00:47:42.84460"
    PERFORMER "Владимир Михайлович Зазнобин. Видеоархив"
    INDEX 01 47:42:63
  TRACK 204 AUDIO
    TITLE "00:47:56.35483"
    PERFORMER "Владимир Михайлович Зазнобин. Видеоархив"
    INDEX 01 47:56:27
  TRACK 205 AUDIO
    TITLE "00:48:10.66381"
    PERFORMER "Владимир Михайлович Зазнобин. Видеоархив"
    INDEX 01 48:10:50
  TRACK 206 AUDIO
    TITLE "00:48:23.92605"
    PERFORMER "Владимир Михайлович Зазнобин. Видеоархив"
    INDEX 01 48:23:69
  TRACK 207 AUDIO
    TITLE "00:48:39.01848"
    PERFORMER "Владимир Михайлович Зазнобин. Видеоархив"
    INDEX 01 48:39:01
  TRACK 208 AUDIO
    TITLE "00:48:53.57639"
    PERFORMER "Владимир Михайлович Зазнобин. Видеоархив"
    INDEX 01 48:53:43
  TRACK 209 AUDIO
    TITLE "00:49:06.87020"
    PERFORMER "Владимир Михайлович Зазнобин. Видеоархив"
    INDEX 01 49:06:65
  TRACK 210 AUDIO
    TITLE "00:49:21.72161"
    PERFORMER "Владимир Михайлович Зазнобин. Видеоархив"
    INDEX 01 49:21:54
  TRACK 211 AUDIO
    TITLE "00:49:35.19562"
    PERFORMER "Владимир Михайлович Зазнобин. Видеоархив"
    INDEX 01 49:35:15
  TRACK 212 AUDIO
    TITLE "00:49:48.56467"
    PERFORMER "Владимир Михайлович Зазнобин. Видеоархив"
    INDEX 01 49:48:42
  TRACK 213 AUDIO
    TITLE "00:50:04.98111"
    PERFORMER "Владимир Михайлович Зазнобин. Видеоархив"
    INDEX 01 50:04:74
  TRACK 214 AUDIO
    TITLE "00:50:18.14163"
    PERFORMER "Владимир Михайлович Зазнобин. Видеоархив"
    INDEX 01 50:18:11
  TRACK 215 AUDIO
    TITLE "00:50:32.04846"
    PERFORMER "Владимир Михайлович Зазнобин. Видеоархив"
    INDEX 01 50:32:04
  TRACK 216 AUDIO
    TITLE "00:50:45.24429"
    PERFORMER "Владимир Михайлович Зазнобин. Видеоархив"
    INDEX 01 50:45:18
  TRACK 217 AUDIO
    TITLE "00:51:00.29633"
    PERFORMER "Владимир Михайлович Зазнобин. Видеоархив"
    INDEX 01 51:00:22
  TRACK 218 AUDIO
    TITLE "00:51:13.85531"
    PERFORMER "Владимир Михайлович Зазнобин. Видеоархив"
    INDEX 01 51:13:64
  TRACK 219 AUDIO
    TITLE "00:51:28.45222"
    PERFORMER "Владимир Михайлович Зазнобин. Видеоархив"
    INDEX 01 51:28:34
  TRACK 220 AUDIO
    TITLE "00:51:42.05254"
    PERFORMER "Владимир Михайлович Зазнобин. Видеоархив"
    INDEX 01 51:42:04
  TRACK 221 AUDIO
    TITLE "00:51:57.44313"
    PERFORMER "Владимир Михайлович Зазнобин. Видеоархив"
    INDEX 01 51:57:33
  TRACK 222 AUDIO
    TITLE "00:52:10.55256"
    PERFORMER "Владимир Михайлович Зазнобин. Видеоархив"
    INDEX 01 52:10:41
  TRACK 223 AUDIO
    TITLE "00:52:24.59222"
    PERFORMER "Владимир Михайлович Зазнобин. Видеоархив"
    INDEX 01 52:24:44
  TRACK 224 AUDIO
    TITLE "00:52:38.97551"
    PERFORMER "Владимир Михайлович Зазнобин. Видеоархив"
    INDEX 01 52:38:73
  TRACK 225 AUDIO
    TITLE "00:52:55.02785"
    PERFORMER "Владимир Михайлович Зазнобин. Видеоархив"
    INDEX 01 52:55:02
  TRACK 226 AUDIO
    TITLE "00:53:09.46873"
    PERFORMER "Владимир Михайлович Зазнобин. Видеоархив"
    INDEX 01 53:09:35
  TRACK 227 AUDIO
    TITLE "00:53:23.44104"
    PERFORMER "Владимир Михайлович Зазнобин. Видеоархив"
    INDEX 01 53:23:33
  TRACK 228 AUDIO
    TITLE "00:53:36.82959"
    PERFORMER "Владимир Михайлович Зазнобин. Видеоархив"
    INDEX 01 53:36:62
  TRACK 229 AUDIO
    TITLE "00:53:54.81431"
    PERFORMER "Владимир Михайлович Зазнобин. Видеоархив"
    INDEX 01 53:54:61
  TRACK 230 AUDIO
    TITLE "00:54:08.79728"
    PERFORMER "Владимир Михайлович Зазнобин. Видеоархив"
    INDEX 01 54:08:60
  TRACK 231 AUDIO
    TITLE "00:54:21.83893"
    PERFORMER "Владимир Михайлович Зазнобин. Видеоархив"
    INDEX 01 54:21:63
  TRACK 232 AUDIO
    TITLE "00:54:34.77655"
    PERFORMER "Владимир Михайлович Зазнобин. Видеоархив"
    INDEX 01 54:34:58
  TRACK 233 AUDIO
    TITLE "00:54:48.19438"
    PERFORMER "Владимир Михайлович Зазнобин. Видеоархив"
    INDEX 01 54:48:15
  TRACK 234 AUDIO
    TITLE "00:55:01.50118"
    PERFORMER "Владимир Михайлович Зазнобин. Видеоархив"
    INDEX 01 55:01:38
  TRACK 235 AUDIO
    TITLE "00:55:18.17630"
    PERFORMER "Владимир Михайлович Зазнобин. Видеоархив"
    INDEX 01 55:18:13
  TRACK 236 AUDIO
    TITLE "00:55:32.49365"
    PERFORMER "Владимир Михайлович Зазнобин. Видеоархив"
    INDEX 01 55:32:37
  TRACK 237 AUDIO
    TITLE "00:55:46.97492"
    PERFORMER "Владимир Михайлович Зазнобин. Видеоархив"
    INDEX 01 55:46:73
  TRACK 238 AUDIO
    TITLE "00:56:01.20683"
    PERFORMER "Владимир Михайлович Зазнобин. Видеоархив"
    INDEX 01 56:01:16
  TRACK 239 AUDIO
    TITLE "00:56:14.76535"
    PERFORMER "Владимир Михайлович Зазнобин. Видеоархив"
    INDEX 01 56:14:57
  TRACK 240 AUDIO
    TITLE "00:56:30.75408"
    PERFORMER "Владимир Михайлович Зазнобин. Видеоархив"
    INDEX 01 56:30:57
  TRACK 241 AUDIO
    TITLE "00:56:47.53088"
    PERFORMER "Владимир Михайлович Зазнобин. Видеоархив"
    INDEX 01 56:47:40
  TRACK 242 AUDIO
    TITLE "00:57:02.15660"
    PERFORMER "Владимир Михайлович Зазнобин. Видеоархив"
    INDEX 01 57:02:12
  TRACK 243 AUDIO
    TITLE "00:57:15.77503"
    PERFORMER "Владимир Михайлович Зазнобин. Видеоархив"
    INDEX 01 57:15:58
  TRACK 244 AUDIO
    TITLE "00:57:29.57317"
    PERFORMER "Владимир Михайлович Зазнобин. Видеоархив"
    INDEX 01 57:29:43
  TRACK 245 AUDIO
    TITLE "00:57:44.77846"
    PERFORMER "Владимир Михайлович Зазнобин. Видеоархив"
    INDEX 01 57:44:58
  TRACK 246 AUDIO
    TITLE "00:57:58.05975"
    PERFORMER "Владимир Михайлович Зазнобин. Видеоархив"
    INDEX 01 57:58:04
  TRACK 247 AUDIO
    TITLE "00:58:11.06610"
    PERFORMER "Владимир Михайлович Зазнобин. Видеоархив"
    INDEX 01 58:11:05
  TRACK 248 AUDIO
    TITLE "00:58:23.98374"
    PERFORMER "Владимир Михайлович Зазнобин. Видеоархив"
    INDEX 01 58:23:74
  TRACK 249 AUDIO
    TITLE "00:58:37.05186"
    PERFORMER "Владимир Михайлович Зазнобин. Видеоархив"
    INDEX 01 58:37:04
  TRACK 250 AUDIO
    TITLE "00:58:50.27277"
    PERFORMER "Владимир Михайлович Зазнобин. Видеоархив"
    INDEX 01 58:50:20
  TRACK 251 AUDIO
    TITLE "00:59:06.92095"
    PERFORMER "Владимир Михайлович Зазнобин. Видеоархив"
    INDEX 01 59:06:69
  TRACK 252 AUDIO
    TITLE "00:59:20.78086"
    PERFORMER "Владимир Михайлович Зазнобин. Видеоархив"
    INDEX 01 59:20:59
  TRACK 253 AUDIO
    TITLE "00:59:34.02358"
    PERFORMER "Владимир Михайлович Зазнобин. Видеоархив"
    INDEX 01 59:34:02
  TRACK 254 AUDIO
    TITLE "00:59:47.27098"
    PERFORMER "Владимир Михайлович Зазнобин. Видеоархив"
    INDEX 01 59:47:20
  TRACK 255 AUDIO
    TITLE "01:00:00.61122"
    PERFORMER "Владимир Михайлович Зазнобин. Видеоархив"
    INDEX 01 60:00:46
  TRACK 256 AUDIO
    TITLE "01:00:14.84499"
    PERFORMER "Владимир Михайлович Зазнобин. Видеоархив"
    INDEX 01 60:14:63
  TRACK 257 AUDIO
    TITLE "01:00:30.43293"
    PERFORMER "Владимир Михайлович Зазнобин. Видеоархив"
    INDEX 01 60:30:32
  TRACK 258 AUDIO
    TITLE "01:00:47.60959"
    PERFORMER "Владимир Михайлович Зазнобин. Видеоархив"
    INDEX 01 60:47:46
  TRACK 259 AUDIO
    TITLE "01:01:02.20234"
    PERFORMER "Владимир Михайлович Зазнобин. Видеоархив"
    INDEX 01 61:02:15
  TRACK 260 AUDIO
    TITLE "01:01:16.07385"
    PERFORMER "Владимир Михайлович Зазнобин. Видеоархив"
    INDEX 01 61:16:06
  TRACK 261 AUDIO
    TITLE "01:01:31.98689"
    PERFORMER "Владимир Михайлович Зазнобин. Видеоархив"
    INDEX 01 61:31:74
  TRACK 262 AUDIO
    TITLE "01:01:45.92714"
    PERFORMER "Владимир Михайлович Зазнобин. Видеоархив"
    INDEX 01 61:45:70
  TRACK 263 AUDIO
    TITLE "01:01:59.47082"
    PERFORMER "Владимир Михайлович Зазнобин. Видеоархив"
    INDEX 01 61:59:35
  TRACK 264 AUDIO
    TITLE "01:02:14.30596"
    PERFORMER "Владимир Михайлович Зазнобин. Видеоархив"
    INDEX 01 62:14:23
  TRACK 265 AUDIO
    TITLE "01:02:28.22950"
    PERFORMER "Владимир Михайлович Зазнобин. Видеоархив"
    INDEX 01 62:28:17
  TRACK 266 AUDIO
    TITLE "01:02:41.59624"
    PERFORMER "Владимир Михайлович Зазнобин. Видеоархив"
    INDEX 01 62:41:45
  TRACK 267 AUDIO
    TITLE "01:02:54.67317"
    PERFORMER "Владимир Михайлович Зазнобин. Видеоархив"
    INDEX 01 62:54:50
  TRACK 268 AUDIO
    TITLE "01:03:13.88249"
    PERFORMER "Владимир Михайлович Зазнобин. Видеоархив"
    INDEX 01 63:13:66
  TRACK 269 AUDIO
    TITLE "01:03:27.02354"
    PERFORMER "Владимир Михайлович Зазнобин. Видеоархив"
    INDEX 01 63:27:02
  TRACK 270 AUDIO
    TITLE "01:03:42.12619"
    PERFORMER "Владимир Михайлович Зазнобин. Видеоархив"
    INDEX 01 63:42:09
  TRACK 271 AUDIO
    TITLE "01:03:55.43764"
    PERFORMER "Владимир Михайлович Зазнобин. Видеоархив"
    INDEX 01 63:55:33
  TRACK 272 AUDIO
    TITLE "01:04:08.85964"
    PERFORMER "Владимир Михайлович Зазнобин. Видеоархив"
    INDEX 01 64:08:64
  TRACK 273 AUDIO
    TITLE "01:04:22.78828"
    PERFORMER "Владимир Михайлович Зазнобин. Видеоархив"
    INDEX 01 64:22:59
  TRACK 274 AUDIO
    TITLE "01:04:37.67454"
    PERFORMER "Владимир Михайлович Зазнобин. Видеоархив"
    INDEX 01 64:37:51
  TRACK 275 AUDIO
    TITLE "01:04:51.86324"
    PERFORMER "Владимир Михайлович Зазнобин. Видеоархив"
    INDEX 01 64:51:65
  TRACK 276 AUDIO
    TITLE "01:05:05.77379"
    PERFORMER "Владимир Михайлович Зазнобин. Видеоархив"
    INDEX 01 65:05:58
  TRACK 277 AUDIO
    TITLE "01:05:20.60011"
    PERFORMER "Владимир Михайлович Зазнобин. Видеоархив"
    INDEX 01 65:20:45
  TRACK 278 AUDIO
    TITLE "01:05:34.82272"
    PERFORMER "Владимир Михайлович Зазнобин. Видеоархив"
    INDEX 01 65:34:62
  TRACK 279 AUDIO
    TITLE "01:05:48.58744"
    PERFORMER "Владимир Михайлович Зазнобин. Видеоархив"
    INDEX 01 65:48:44
  TRACK 280 AUDIO
    TITLE "01:06:04.94769"
    PERFORMER "Владимир Михайлович Зазнобин. Видеоархив"
    INDEX 01 66:04:71
  TRACK 281 AUDIO
    TITLE "01:06:19.92912"
    PERFORMER "Владимир Михайлович Зазнобин. Видеоархив"
    INDEX 01 66:19:70
  TRACK 282 AUDIO
    TITLE "01:06:33.07016"
    PERFORMER "Владимир Михайлович Зазнобин. Видеоархив"
    INDEX 01 66:33:05
  TRACK 283 AUDIO
    TITLE "01:06:46.27760"
    PERFORMER "Владимир Михайлович Зазнобин. Видеоархив"
    INDEX 01 66:46:21
  TRACK 284 AUDIO
    TITLE "01:06:59.61785"
    PERFORMER "Владимир Михайлович Зазнобин. Видеоархив"
    INDEX 01 66:59:46
  TRACK 285 AUDIO
    TITLE "01:07:13.23673"
    PERFORMER "Владимир Михайлович Зазнобин. Видеоархив"
    INDEX 01 67:13:18
  TRACK 286 AUDIO
    TITLE "01:07:28.51633"
    PERFORMER "Владимир Михайлович Зазнобин. Видеоархив"
    INDEX 01 67:28:39
  TRACK 287 AUDIO
    TITLE "01:07:42.01308"
    PERFORMER "Владимир Михайлович Зазнобин. Видеоархив"
    INDEX 01 67:42:01
  TRACK 288 AUDIO
    TITLE "01:07:56.86170"
    PERFORMER "Владимир Михайлович Зазнобин. Видеоархив"
    INDEX 01 67:56:65
  TRACK 289 AUDIO
    TITLE "01:08:10.89161"
    PERFORMER "Владимир Михайлович Зазнобин. Видеоархив"
    INDEX 01 68:10:67
  TRACK 290 AUDIO
    TITLE "01:08:23.83571"
    PERFORMER "Владимир Михайлович Зазнобин. Видеоархив"
    INDEX 01 68:23:63
  TRACK 291 AUDIO
    TITLE "01:08:37.86190"
    PERFORMER "Владимир Михайлович Зазнобин. Видеоархив"
    INDEX 01 68:37:65
  TRACK 292 AUDIO
    TITLE "01:08:51.58667"
    PERFORMER "Владимир Михайлович Зазнобин. Видеоархив"
    INDEX 01 68:51:44
  TRACK 293 AUDIO
    TITLE "01:09:07.95991"
    PERFORMER "Владимир Михайлович Зазнобин. Видеоархив"
    INDEX 01 69:07:72
  TRACK 294 AUDIO
    TITLE "01:09:22.40406"
    PERFORMER "Владимир Михайлович Зазнобин. Видеоархив"
    INDEX 01 69:22:30
  TRACK 295 AUDIO
    TITLE "01:09:36.01227"
    PERFORMER "Владимир Михайлович Зазнобин. Видеоархив"
    INDEX 01 69:36:01
  TRACK 296 AUDIO
    TITLE "01:09:49.89866"
    PERFORMER "Владимир Михайлович Зазнобин. Видеоархив"
    INDEX 01 69:49:67
  TRACK 297 AUDIO
    TITLE "01:10:04.31540"
    PERFORMER "Владимир Михайлович Зазнобин. Видеоархив"
    INDEX 01 70:04:24
  TRACK 298 AUDIO
    TITLE "01:10:17.66447"
    PERFORMER "Владимир Михайлович Зазнобин. Видеоархив"
    INDEX 01 70:17:50
  TRACK 299 AUDIO
    TITLE "01:10:31.28336"
    PERFORMER "Владимир Михайлович Зазнобин. Видеоархив"
    INDEX 01 70:31:21
  TRACK 300 AUDIO
    TITLE "01:10:44.35333"
    PERFORMER "Владимир Михайлович Зазнобин. Видеоархив"
    INDEX 01 70:44:27
  TRACK 301 AUDIO
    TITLE "01:10:58.52347"
    PERFORMER "Владимир Михайлович Зазнобин. Видеоархив"
    INDEX 01 70:58:39
  TRACK 302 AUDIO
    TITLE "01:11:12.27193"
    PERFORMER "Владимир Михайлович Зазнобин. Видеоархив"
    INDEX 01 71:12:20
  TRACK 303 AUDIO
    TITLE "01:11:26.19873"
    PERFORMER "Владимир Михайлович Зазнобин. Видеоархив"
    INDEX 01 71:26:15
  TRACK 304 AUDIO
    TITLE "01:11:40.79519"
    PERFORMER "Владимир Михайлович Зазнобин. Видеоархив"
    INDEX 01 71:40:60
  TRACK 305 AUDIO
    TITLE "01:11:54.05927"
    PERFORMER "Владимир Михайлович Зазнобин. Видеоархив"
    INDEX 01 71:54:04
  TRACK 306 AUDIO
    TITLE "01:12:07.60061"
    PERFORMER "Владимир Михайлович Зазнобин. Видеоархив"
    INDEX 01 72:07:45
  TRACK 307 AUDIO
    TITLE "01:12:21.79955"
    PERFORMER "Владимир Михайлович Зазнобин. Видеоархив"
    INDEX 01 72:21:60
  TRACK 308 AUDIO
    TITLE "01:12:36.00637"
    PERFORMER "Владимир Михайлович Зазнобин. Видеоархив"
    INDEX 01 72:36:00
  TRACK 309 AUDIO
    TITLE "01:12:52.98612"
    PERFORMER "Владимир Михайлович Зазнобин. Видеоархив"
    INDEX 01 72:52:74
  TRACK 310 AUDIO
    TITLE "01:13:07.05132"
    PERFORMER "Владимир Михайлович Зазнобин. Видеоархив"
    INDEX 01 73:07:04
  TRACK 311 AUDIO
    TITLE "01:13:21.05937"
    PERFORMER "Владимир Михайлович Зазнобин. Видеоархив"
    INDEX 01 73:21:04
  TRACK 312 AUDIO
    TITLE "01:13:36.60692"
    PERFORMER "Владимир Михайлович Зазнобин. Видеоархив"
    INDEX 01 73:36:46
  TRACK 313 AUDIO
    TITLE "01:13:55.31376"
    PERFORMER "Владимир Михайлович Зазнобин. Видеоархив"
    INDEX 01 73:55:24
  TRACK 314 AUDIO
    TITLE "01:14:08.13855"
    PERFORMER "Владимир Михайлович Зазнобин. Видеоархив"
    INDEX 01 74:08:10
  TRACK 315 AUDIO
    TITLE "01:14:24.65669"
    PERFORMER "Владимир Михайлович Зазнобин. Видеоархив"
    INDEX 01 74:24:49
  TRACK 316 AUDIO
    TITLE "01:14:39.41429"
    PERFORMER "Владимир Михайлович Зазнобин. Видеоархив"
    INDEX 01 74:39:31
  TRACK 317 AUDIO
    TITLE "01:14:52.71692"
    PERFORMER "Владимир Михайлович Зазнобин. Видеоархив"
    INDEX 01 74:52:54
  TRACK 318 AUDIO
    TITLE "01:15:05.76274"
    PERFORMER "Владимир Михайлович Зазнобин. Видеоархив"
    INDEX 01 75:05:57
  TRACK 319 AUDIO
    TITLE "01:15:18.70036"
    PERFORMER "Владимир Михайлович Зазнобин. Видеоархив"
    INDEX 01 75:18:53
  TRACK 320 AUDIO
    TITLE "01:15:33.60426"
    PERFORMER "Владимир Михайлович Зазнобин. Видеоархив"
    INDEX 01 75:33:45
  TRACK 321 AUDIO
    TITLE "01:15:48.17145"
    PERFORMER "Владимир Михайлович Зазнобин. Видеоархив"
    INDEX 01 75:48:13
  TRACK 322 AUDIO
    TITLE "01:16:01.18431"
    PERFORMER "Владимир Михайлович Зазнобин. Видеоархив"
    INDEX 01 76:01:14
  TRACK 323 AUDIO
    TITLE "01:16:15.02426"
    PERFORMER "Владимир Михайлович Зазнобин. Видеоархив"
    INDEX 01 76:15:02
  TRACK 324 AUDIO
    TITLE "01:16:30.51190"
    PERFORMER "Владимир Михайлович Зазнобин. Видеоархив"
    INDEX 01 76:30:38
  TRACK 325 AUDIO
    TITLE "01:16:43.78993"
    PERFORMER "Владимир Михайлович Зазнобин. Видеоархив"
    INDEX 01 76:43:59
  TRACK 326 AUDIO
    TITLE "01:16:58.40821"
    PERFORMER "Владимир Михайлович Зазнобин. Видеоархив"
    INDEX 01 76:58:31
  TRACK 327 AUDIO
    TITLE "01:17:11.63560"
    PERFORMER "Владимир Михайлович Зазнобин. Видеоархив"
    INDEX 01 77:11:48
  TRACK 328 AUDIO
    TITLE "01:17:26.65420"
    PERFORMER "Владимир Михайлович Зазнобин. Видеоархив"
    INDEX 01 77:26:49
  TRACK 329 AUDIO
    TITLE "01:17:40.95390"
    PERFORMER "Владимир Михайлович Зазнобин. Видеоархив"
    INDEX 01 77:40:72
  TRACK 330 AUDIO
    TITLE "01:17:53.98673"
    PERFORMER "Владимир Михайлович Зазнобин. Видеоархив"
    INDEX 01 77:53:74
  TRACK 331 AUDIO
    TITLE "01:18:08.47730"
    PERFORMER "Владимир Михайлович Зазнобин. Видеоархив"
    INDEX 01 78:08:36
  TRACK 332 AUDIO
    TITLE "01:18:22.01168"
    PERFORMER "Владимир Михайлович Зазнобин. Видеоархив"
    INDEX 01 78:22:01
  TRACK 333 AUDIO
    TITLE "01:18:37.05721"
    PERFORMER "Владимир Михайлович Зазнобин. Видеоархив"
    INDEX 01 78:37:04
  TRACK 334 AUDIO
    TITLE "01:18:55.50306"
    PERFORMER "Владимир Михайлович Зазнобин. Видеоархив"
    INDEX 01 78:55:38
  TRACK 335 AUDIO
    TITLE "01:19:09.81902"
    PERFORMER "Владимир Михайлович Зазнобин. Видеоархив"
    INDEX 01 79:09:61
  TRACK 336 AUDIO
    TITLE "01:19:26.13329"
    PERFORMER "Владимир Михайлович Зазнобин. Видеоархив"
    INDEX 01 79:26:10
  TRACK 337 AUDIO
    TITLE "01:19:41.26660"
    PERFORMER "Владимир Михайлович Зазнобин. Видеоархив"
    INDEX 01 79:41:20
  TRACK 338 AUDIO
    TITLE "01:19:56.03998"
    PERFORMER "Владимир Михайлович Зазнобин. Видеоархив"
    INDEX 01 79:56:03
  TRACK 339 AUDIO
    TITLE "01:20:09.70719"
    PERFORMER "Владимир Михайлович Зазнобин. Видеоархив"
    INDEX 01 80:09:53
  TRACK 340 AUDIO
    TITLE "01:20:24.32546"
    PERFORMER "Владимир Михайлович Зазнобин. Видеоархив"
    INDEX 01 80:24:24
  TRACK 341 AUDIO
    TITLE "01:20:39.03476"
    PERFORMER "Владимир Михайлович Зазнобин. Видеоархив"
    INDEX 01 80:39:03
  TRACK 342 AUDIO
    TITLE "01:20:52.92533"
    PERFORMER "Владимир Михайлович Зазнобин. Видеоархив"
    INDEX 01 80:52:69
  TRACK 343 AUDIO
    TITLE "01:21:06.41791"
    PERFORMER "Владимир Михайлович Зазнобин. Видеоархив"
    INDEX 01 81:06:31
  TRACK 344 AUDIO
    TITLE "01:21:21.30184"
    PERFORMER "Владимир Михайлович Зазнобин. Видеоархив"
    INDEX 01 81:21:23
  TRACK 345 AUDIO
    TITLE "01:21:34.86732"
    PERFORMER "Владимир Михайлович Зазнобин. Видеоархив"
    INDEX 01 81:34:65
  TRACK 346 AUDIO
    TITLE "01:21:49.40850"
    PERFORMER "Владимир Михайлович Зазнобин. Видеоархив"
    INDEX 01 81:49:31
  TRACK 347 AUDIO
    TITLE "01:22:02.43624"
    PERFORMER "Владимир Михайлович Зазнобин. Видеоархив"
    INDEX 01 82:02:33
  TRACK 348 AUDIO
    TITLE "01:22:16.05327"
    PERFORMER "Владимир Михайлович Зазнобин. Видеоархив"
    INDEX 01 82:16:04
  TRACK 349 AUDIO
    TITLE "01:22:30.88145"
    PERFORMER "Владимир Михайлович Зазнобин. Видеоархив"
    INDEX 01 82:30:66
  TRACK 350 AUDIO
    TITLE "01:22:49.11834"
    PERFORMER "Владимир Михайлович Зазнобин. Видеоархив"
    INDEX 01 82:49:09
  TRACK 351 AUDIO
    TITLE "01:23:04.02594"
    PERFORMER "Владимир Михайлович Зазнобин. Видеоархив"
    INDEX 01 83:04:02
  TRACK 352 AUDIO
    TITLE "01:23:17.69544"
    PERFORMER "Владимир Михайлович Зазнобин. Видеоархив"
    INDEX 01 83:17:52
  TRACK 353 AUDIO
    TITLE "01:23:31.69701"
    PERFORMER "Владимир Михайлович Зазнобин. Видеоархив"
    INDEX 01 83:31:52
  TRACK 354 AUDIO
    TITLE "01:23:44.92814"
    PERFORMER "Владимир Михайлович Зазнобин. Видеоархив"
    INDEX 01 83:44:70
  TRACK 355 AUDIO
    TITLE "01:23:59.25014"
    PERFORMER "Владимир Михайлович Зазнобин. Видеоархив"
    INDEX 01 83:59:19
  TRACK 356 AUDIO
    TITLE "01:24:12.86902"
    PERFORMER "Владимир Михайлович Зазнобин. Видеоархив"
    INDEX 01 84:12:65
  TRACK 357 AUDIO
    TITLE "01:24:26.45494"
    PERFORMER "Владимир Михайлович Зазнобин. Видеоархив"
    INDEX 01 84:26:34
  TRACK 358 AUDIO
    TITLE "01:24:43.34274"
    PERFORMER "Владимир Михайлович Зазнобин. Видеоархив"
    INDEX 01 84:43:26
  TRACK 359 AUDIO
    TITLE "01:24:58.69524"
    PERFORMER "Владимир Михайлович Зазнобин. Видеоархив"
    INDEX 01 84:58:52
  TRACK 360 AUDIO
    TITLE "01:25:14.11370"
    PERFORMER "Владимир Михайлович Зазнобин. Видеоархив"
    INDEX 01 85:14:09
  TRACK 361 AUDIO
    TITLE "01:25:30.09823"
    PERFORMER "Владимир Михайлович Зазнобин. Видеоархив"
    INDEX 01 85:30:07
  TRACK 362 AUDIO
    TITLE "01:25:44.97612"
    PERFORMER "Владимир Михайлович Зазнобин. Видеоархив"
    INDEX 01 85:44:73
  TRACK 363 AUDIO
    TITLE "01:25:58.52118"
    PERFORMER "Владимир Михайлович Зазнобин. Видеоархив"
    INDEX 01 85:58:39
  TRACK 364 AUDIO
    TITLE "01:26:12.62907"
    PERFORMER "Владимир Михайлович Зазнобин. Видеоархив"
    INDEX 01 86:12:47
  TRACK 365 AUDIO
    TITLE "01:26:26.32041"
    PERFORMER "Владимир Михайлович Зазнобин. Видеоархив"
    INDEX 01 86:26:24
  TRACK 366 AUDIO
    TITLE "01:26:40.91501"
    PERFORMER "Владимир Михайлович Зазнобин. Видеоархив"
    INDEX 01 86:40:69
  TRACK 367 AUDIO
    TITLE "01:26:56.34878"
    PERFORMER "Владимир Михайлович Зазнобин. Видеоархив"
    INDEX 01 86:56:26
  TRACK 368 AUDIO
    TITLE "01:27:13.55887"
    PERFORMER "Владимир Михайлович Зазнобин. Видеоархив"
    INDEX 01 87:13:42
  TRACK 369 AUDIO
    TITLE "01:27:27.56508"
    PERFORMER "Владимир Михайлович Зазнобин. Видеоархив"
    INDEX 01 87:27:42
  TRACK 370 AUDIO
    TITLE "01:27:42.05891"
    PERFORMER "Владимир Михайлович Зазнобин. Видеоархив"
    INDEX 01 87:42:04
  TRACK 371 AUDIO
    TITLE "01:27:56.07626"
    PERFORMER "Владимир Михайлович Зазнобин. Видеоархив"
    INDEX 01 87:56:06
  TRACK 372 AUDIO
    TITLE "01:28:09.03989"
    PERFORMER "Владимир Михайлович Зазнобин. Видеоархив"
    INDEX 01 88:09:03
  TRACK 373 AUDIO
    TITLE "01:28:22.23200"
    PERFORMER "Владимир Михайлович Зазнобин. Видеоархив"
    INDEX 01 88:22:17
  TRACK 374 AUDIO
    TITLE "01:28:35.41297"
    PERFORMER "Владимир Михайлович Зазнобин. Видеоархив"
    INDEX 01 88:35:31
  TRACK 375 AUDIO
    TITLE "01:28:50.44966"
    PERFORMER "Владимир Михайлович Зазнобин. Видеоархив"
    INDEX 01 88:50:34
  TRACK 376 AUDIO
    TITLE "01:29:04.08807"
    PERFORMER "Владимир Михайлович Зазнобин. Видеоархив"
    INDEX 01 89:04:07
  TRACK 377 AUDIO
    TITLE "01:29:20.07122"
    PERFORMER "Владимир Михайлович Зазнобин. Видеоархив"
    INDEX 01 89:20:05
  TRACK 378 AUDIO
    TITLE "01:29:38.56816"
    PERFORMER "Владимир Михайлович Зазнобин. Видеоархив"
    INDEX 01 89:38:43
  TRACK 379 AUDIO
    TITLE "01:29:52.05376"
    PERFORMER "Владимир Михайлович Зазнобин. Видеоархив"
    INDEX 01 89:52:04
  TRACK 380 AUDIO
    TITLE "01:30:07.55302"
    PERFORMER "Владимир Михайлович Зазнобин. Видеоархив"
    INDEX 01 90:07:41
  TRACK 381 AUDIO
    TITLE "01:30:24.91404"
    PERFORMER "Владимир Михайлович Зазнобин. Видеоархив"
    INDEX 01 90:24:69
  TRACK 382 AUDIO
    TITLE "01:30:39.95354"
    PERFORMER "Владимир Михайлович Зазнобин. Видеоархив"
    INDEX 01 90:39:72
  TRACK 383 AUDIO
    TITLE "01:30:53.52134"
    PERFORMER "Владимир Михайлович Зазнобин. Видеоархив"
    INDEX 01 90:53:39
  TRACK 384 AUDIO
    TITLE "01:31:06.44132"
    PERFORMER "Владимир Михайлович Зазнобин. Видеоархив"
    INDEX 01 91:06:33
  TRACK 385 AUDIO
    TITLE "01:31:19.78159"
    PERFORMER "Владимир Михайлович Зазнобин. Видеоархив"
    INDEX 01 91:19:59
  TRACK 386 AUDIO
    TITLE "01:31:33.10186"
    PERFORMER "Владимир Михайлович Зазнобин. Видеоархив"
    INDEX 01 91:33:08
  TRACK 387 AUDIO
    TITLE "01:31:47.08578"
    PERFORMER "Владимир Михайлович Зазнобин. Видеоархив"
    INDEX 01 91:47:06
  TRACK 388 AUDIO
    TITLE "01:32:02.39463"
    PERFORMER "Владимир Михайлович Зазнобин. Видеоархив"
    INDEX 01 92:02:30
  TRACK 389 AUDIO
    TITLE "01:32:15.88626"
    PERFORMER "Владимир Михайлович Зазнобин. Видеоархив"
    INDEX 01 92:15:66
  TRACK 390 AUDIO
    TITLE "01:32:29.77961"
    PERFORMER "Владимир Михайлович Зазнобин. Видеоархив"
    INDEX 01 92:29:58
  TRACK 391 AUDIO
    TITLE "01:32:45.24823"
    PERFORMER "Владимир Михайлович Зазнобин. Видеоархив"
    INDEX 01 92:45:19
  TRACK 392 AUDIO
    TITLE "01:32:59.11789"
    PERFORMER "Владимир Михайлович Зазнобин. Видеоархив"
    INDEX 01 92:59:09
  TRACK 393 AUDIO
    TITLE "01:33:14.24748"
    PERFORMER "Владимир Михайлович Зазнобин. Видеоархив"
    INDEX 01 93:14:19
  TRACK 394 AUDIO
    TITLE "01:33:29.49594"
    PERFORMER "Владимир Михайлович Зазнобин. Видеоархив"
    INDEX 01 93:29:37
  TRACK 395 AUDIO
    TITLE "01:33:42.89519"
    PERFORMER "Владимир Михайлович Зазнобин. Видеоархив"
    INDEX 01 93:42:67
  TRACK 396 AUDIO
    TITLE "01:33:56.96084"
    PERFORMER "Владимир Михайлович Зазнобин. Видеоархив"
    INDEX 01 93:56:72
  TRACK 397 AUDIO
    TITLE "01:34:12.00265"
    PERFORMER "Владимир Михайлович Зазнобин. Видеоархив"
    INDEX 01 94:12:00
  TRACK 398 AUDIO
    TITLE "01:34:25.45435"
    PERFORMER "Владимир Михайлович Зазнобин. Видеоархив"
    INDEX 01 94:25:34
  TRACK 399 AUDIO
    TITLE "01:34:38.65528"
    PERFORMER "Владимир Михайлович Зазнобин. Видеоархив"
    INDEX 01 94:38:49
  TRACK 400 AUDIO
    TITLE "01:34:52.43580"
    PERFORMER "Владимир Михайлович Зазнобин. Видеоархив"
    INDEX 01 94:52:33
  TRACK 401 AUDIO
    TITLE "01:35:06.75315"
    PERFORMER "Владимир Михайлович Зазнобин. Видеоархив"
    INDEX 01 95:06:56
  TRACK 402 AUDIO
    TITLE "01:35:23.94698"
    PERFORMER "Владимир Михайлович Зазнобин. Видеоархив"
    INDEX 01 95:23:71
  TRACK 403 AUDIO
    TITLE "01:35:38.59082"
    PERFORMER "Владимир Михайлович Зазнобин. Видеоархив"
    INDEX 01 95:38:44
  TRACK 404 AUDIO
    TITLE "01:35:52.18045"
    PERFORMER "Владимир Михайлович Зазнобин. Видеоархив"
    INDEX 01 95:52:14
  TRACK 405 AUDIO
    TITLE "01:36:05.05585"
    PERFORMER "Владимир Михайлович Зазнобин. Видеоархив"
    INDEX 01 96:05:04
  TRACK 406 AUDIO
    TITLE "01:36:19.19254"
    PERFORMER "Владимир Михайлович Зазнобин. Видеоархив"
    INDEX 01 96:19:14
  TRACK 407 AUDIO
    TITLE "01:36:32.12088"
    PERFORMER "Владимир Михайлович Зазнобин. Видеоархив"
    INDEX 01 96:32:09
  TRACK 408 AUDIO
    TITLE "01:36:47.53467"
    PERFORMER "Владимир Михайлович Зазнобин. Видеоархив"
    INDEX 01 96:47:40
  TRACK 409 AUDIO
    TITLE "01:37:00.90420"
    PERFORMER "Владимир Михайлович Зазнобин. Видеоархив"
    INDEX 01 97:00:68
  TRACK 410 AUDIO
    TITLE "01:37:15.41474"
    PERFORMER "Владимир Михайлович Зазнобин. Видеоархив"
    INDEX 01 97:15:31
  TRACK 411 AUDIO
    TITLE "01:37:29.28533"
    PERFORMER "Владимир Михайлович Зазнобин. Видеоархив"
    INDEX 01 97:29:21
  TRACK 412 AUDIO
    TITLE "01:37:42.18952"
    PERFORMER "Владимир Михайлович Зазнобин. Видеоархив"
    INDEX 01 97:42:14
  TRACK 413 AUDIO
    TITLE "01:37:57.47188"
    PERFORMER "Владимир Михайлович Зазнобин. Видеоархив"
    INDEX 01 97:57:35
  TRACK 414 AUDIO
    TITLE "01:38:14.92905"
    PERFORMER "Владимир Михайлович Зазнобин. Видеоархив"
    INDEX 01 98:14:70
  TRACK 415 AUDIO
    TITLE "01:38:29.53247"
    PERFORMER "Владимир Михайлович Зазнобин. Видеоархив"
    INDEX 01 98:29:40
  TRACK 416 AUDIO
    TITLE "01:38:43.64222"
    PERFORMER "Владимир Михайлович Зазнобин. Видеоархив"
    INDEX 01 98:43:48
  TRACK 417 AUDIO
    TITLE "01:38:57.63449"
    PERFORMER "Владимир Михайлович Зазнобин. Видеоархив"
    INDEX 01 98:57:48
  TRACK 418 AUDIO
    TITLE "01:39:12.12508"
    PERFORMER "Владимир Михайлович Зазнобин. Видеоархив"
    INDEX 01 99:12:09
  TRACK 419 AUDIO
    TITLE "01:39:27.11952"
    PERFORMER "Владимир Михайлович Зазнобин. Видеоархив"
    INDEX 01 99:27:09
  TRACK 420 AUDIO
    TITLE "01:39:41.50746"
    PERFORMER "Владимир Михайлович Зазнобин. Видеоархив"
    INDEX 01 99:41:38
  TRACK 421 AUDIO
    TITLE "01:39:57.61739"
    PERFORMER "Владимир Михайлович Зазнобин. Видеоархив"
    INDEX 01 99:57:46
  TRACK 422 AUDIO
    TITLE "01:40:12.28769"
    PERFORMER "Владимир Михайлович Зазнобин. Видеоархив"
    INDEX 01 100:12:22
  TRACK 423 AUDIO
    TITLE "01:40:26.51633"
    PERFORMER "Владимир Михайлович Зазнобин. Видеоархив"
    INDEX 01 100:26:39
  TRACK 424 AUDIO
    TITLE "01:40:43.93494"
    PERFORMER "Владимир Михайлович Зазнобин. Видеоархив"
    INDEX 01 100:43:70
  TRACK 425 AUDIO
    TITLE "01:40:59.55075"
    PERFORMER "Владимир Михайлович Зазнобин. Видеоархив"
    INDEX 01 100:59:41
  TRACK 426 AUDIO
    TITLE "01:41:12.96299"
    PERFORMER "Владимир Михайлович Зазнобин. Видеоархив"
    INDEX 01 101:12:72
  TRACK 427 AUDIO
    TITLE "01:41:28.12880"
    PERFORMER "Владимир Михайлович Зазнобин. Видеоархив"
    INDEX 01 101:28:10
  TRACK 428 AUDIO
    TITLE "01:41:42.41875"
    PERFORMER "Владимир Михайлович Зазнобин. Видеоархив"
    INDEX 01 101:42:31
  TRACK 429 AUDIO
    TITLE "01:41:56.03764"
    PERFORMER "Владимир Михайлович Зазнобин. Видеоархив"
    INDEX 01 101:56:03
  TRACK 430 AUDIO
    TITLE "01:42:09.10762"
    PERFORMER "Владимир Михайлович Зазнобин. Видеоархив"
    INDEX 01 102:09:08
  TRACK 431 AUDIO
    TITLE "01:42:22.38147"
    PERFORMER "Владимир Михайлович Зазнобин. Видеоархив"
    INDEX 01 102:22:29
  TRACK 432 AUDIO
    TITLE "01:42:38.70596"
    PERFORMER "Владимир Михайлович Зазнобин. Видеоархив"
    INDEX 01 102:38:53
  TRACK 433 AUDIO
    TITLE "01:42:52.61789"
    PERFORMER "Владимир Михайлович Зазнобин. Видеоархив"
    INDEX 01 102:52:46
  TRACK 434 AUDIO
    TITLE "01:43:06.25442"
    PERFORMER "Владимир Михайлович Зазнобин. Видеоархив"
    INDEX 01 103:06:19
  TRACK 435 AUDIO
    TITLE "01:43:20.26481"
    PERFORMER "Владимир Михайлович Зазнобин. Видеоархив"
    INDEX 01 103:20:20
  TRACK 436 AUDIO
    TITLE "01:43:35.63356"
    PERFORMER "Владимир Михайлович Зазнобин. Видеоархив"
    INDEX 01 103:35:48
  TRACK 437 AUDIO
    TITLE "01:43:49.60959"
    PERFORMER "Владимир Михайлович Зазнобин. Видеоархив"
    INDEX 01 103:49:46
  TRACK 438 AUDIO
    TITLE "01:44:06.76209"
    PERFORMER "Владимир Михайлович Зазнобин. Видеоархив"
    INDEX 01 104:06:57
  TRACK 439 AUDIO
    TITLE "01:44:21.32975"
    PERFORMER "Владимир Михайлович Зазнобин. Видеоархив"
    INDEX 01 104:21:25
  TRACK 440 AUDIO
    TITLE "01:44:36.24200"
    PERFORMER "Владимир Михайлович Зазнобин. Видеоархив"
    INDEX 01 104:36:18
  TRACK 441 AUDIO
    TITLE "01:44:50.90533"
    PERFORMER "Владимир Михайлович Зазнобин. Видеоархив"
    INDEX 01 104:50:68
  TRACK 442 AUDIO
    TITLE "01:45:05.68941"
    PERFORMER "Владимир Михайлович Зазнобин. Видеоархив"
    INDEX 01 105:05:52
  TRACK 443 AUDIO
    TITLE "01:45:20.74098"
    PERFORMER "Владимир Михайлович Зазнобин. Видеоархив"
    INDEX 01 105:20:56
  TRACK 444 AUDIO
    TITLE "01:45:33.78401"
    PERFORMER "Владимир Михайлович Зазнобин. Видеоархив"
    INDEX 01 105:33:59
  TRACK 445 AUDIO
    TITLE "01:45:46.56467"
    PERFORMER "Владимир Михайлович Зазнобин. Видеоархив"
    INDEX 01 105:46:42
  TRACK 446 AUDIO
    TITLE "01:46:00.63728"
    PERFORMER "Владимир Михайлович Зазнобин. Видеоархив"
    INDEX 01 106:00:48
  TRACK 447 AUDIO
    TITLE "01:46:14.11871"
    PERFORMER "Владимир Михайлович Зазнобин. Видеоархив"
    INDEX 01 106:14:09
  TRACK 448 AUDIO
    TITLE "01:46:27.06050"
    PERFORMER "Владимир Михайлович Зазнобин. Видеоархив"
    INDEX 01 106:27:05
  TRACK 449 AUDIO
    TITLE "01:46:41.81254"
    PERFORMER "Владимир Михайлович Зазнобин. Видеоархив"
    INDEX 01 106:41:61
  TRACK 450 AUDIO
    TITLE "01:46:56.56782"
    PERFORMER "Владимир Михайлович Зазнобин. Видеоархив"
    INDEX 01 106:56:43
  TRACK 451 AUDIO
    TITLE "01:47:11.64120"
    PERFORMER "Владимир Михайлович Зазнобин. Видеоархив"
    INDEX 01 107:11:48
  TRACK 452 AUDIO
    TITLE "01:47:25.07853"
    PERFORMER "Владимир Михайлович Зазнобин. Видеоархив"
    INDEX 01 107:25:06
  TRACK 453 AUDIO
    TITLE "01:47:39.87653"
    PERFORMER "Владимир Михайлович Зазнобин. Видеоархив"
    INDEX 01 107:39:66
  TRACK 454 AUDIO
    TITLE "01:47:53.92127"
    PERFORMER "Владимир Михайлович Зазнобин. Видеоархив"
    INDEX 01 107:53:69
  TRACK 455 AUDIO
    TITLE "01:48:10.06930"
    PERFORMER "Владимир Михайлович Зазнобин. Видеоархив"
    INDEX 01 108:10:05
  TRACK 456 AUDIO
    TITLE "01:48:25.77054"
    PERFORMER "Владимир Михайлович Зазнобин. Видеоархив"
    INDEX 01 108:25:58
  TRACK 457 AUDIO
    TITLE "01:48:39.69132"
    PERFORMER "Владимир Михайлович Зазнобин. Видеоархив"
    INDEX 01 108:39:52
  TRACK 458 AUDIO
    TITLE "01:48:53.34549"
    PERFORMER "Владимир Михайлович Зазнобин. Видеоархив"
    INDEX 01 108:53:26
  TRACK 459 AUDIO
    TITLE "01:49:07.68329"
    PERFORMER "Владимир Михайлович Зазнобин. Видеоархив"
    INDEX 01 109:07:51
  TRACK 460 AUDIO
    TITLE "01:49:21.89707"
    PERFORMER "Владимир Михайлович Зазнобин. Видеоархив"
    INDEX 01 109:21:67
  TRACK 461 AUDIO
    TITLE "01:49:35.34508"
    PERFORMER "Владимир Михайлович Зазнобин. Видеоархив"
    INDEX 01 109:35:26
  TRACK 462 AUDIO
    TITLE "01:49:56.27454"
    PERFORMER "Владимир Михайлович Зазнобин. Видеоархив"
    INDEX 01 109:56:21
  TRACK 463 AUDIO
    TITLE "01:50:12.47039"
    PERFORMER "Владимир Михайлович Зазнобин. Видеоархив"
    INDEX 01 110:12:35
  TRACK 464 AUDIO
    TITLE "01:50:25.42519"
    PERFORMER "Владимир Михайлович Зазнобин. Видеоархив"
    INDEX 01 110:25:32
  TRACK 465 AUDIO
    TITLE "01:50:42.65803"
    PERFORMER "Владимир Михайлович Зазнобин. Видеоархив"
    INDEX 01 110:42:49
  TRACK 466 AUDIO
    TITLE "01:50:58.80465"
    PERFORMER "Владимир Михайлович Зазнобин. Видеоархив"
    INDEX 01 110:58:60
  TRACK 467 AUDIO
    TITLE "01:51:18.15376"
    PERFORMER "Владимир Михайлович Зазнобин. Видеоархив"
    INDEX 01 111:18:12
  TRACK 468 AUDIO
    TITLE "01:51:34.30596"
    PERFORMER "Владимир Михайлович Зазнобин. Видеоархив"
    INDEX 01 111:34:23
  TRACK 469 AUDIO
    TITLE "01:51:49.70490"
    PERFORMER "Владимир Михайлович Зазнобин. Видеоархив"
    INDEX 01 111:49:53
  TRACK 470 AUDIO
    TITLE "01:52:04.33478"
    PERFORMER "Владимир Михайлович Зазнобин. Видеоархив"
    INDEX 01 112:04:25
  TRACK 471 AUDIO
    TITLE "01:52:22.33390"
    PERFORMER "Владимир Михайлович Зазнобин. Видеоархив"
    INDEX 01 112:22:25
  TRACK 472 AUDIO
    TITLE "01:52:36.42556"
    PERFORMER "Владимир Михайлович Зазнобин. Видеоархив"
    INDEX 01 112:36:32
  TRACK 473 AUDIO
    TITLE "01:52:49.94506"
    PERFORMER "Владимир Михайлович Зазнобин. Видеоархив"
    INDEX 01 112:49:71
  TRACK 474 AUDIO
    TITLE "01:53:03.38238"
    PERFORMER "Владимир Михайлович Зазнобин. Видеоархив"
    INDEX 01 113:03:29
  TRACK 475 AUDIO
    TITLE "01:53:16.88844"
    PERFORMER "Владимир Михайлович Зазнобин. Видеоархив"
    INDEX 01 113:16:67
  TRACK 476 AUDIO
    TITLE "01:53:31.35392"
    PERFORMER "Владимир Михайлович Зазнобин. Видеоархив"
    INDEX 01 113:31:27
  TRACK 477 AUDIO
    TITLE "01:53:46.14728"
    PERFORMER "Владимир Михайлович Зазнобин. Видеоархив"
    INDEX 01 113:46:11
  TRACK 478 AUDIO
    TITLE "01:54:07.24440"
    PERFORMER "Владимир Михайлович Зазнобин. Видеоархив"
    INDEX 01 114:07:18
  TRACK 479 AUDIO
    TITLE "01:54:21.73914"
    PERFORMER "Владимир Михайлович Зазнобин. Видеоархив"
    INDEX 01 114:21:55
  TRACK 480 AUDIO
    TITLE "01:54:37.98376"
    PERFORMER "Владимир Михайлович Зазнобин. Видеоархив"
    INDEX 01 114:37:74
  TRACK 481 AUDIO
    TITLE "01:54:53.06875"
    PERFORMER "Владимир Михайлович Зазнобин. Видеоархив"
    INDEX 01 114:53:05
  TRACK 482 AUDIO
    TITLE "01:55:06.28408"
    PERFORMER "Владимир Михайлович Зазнобин. Видеоархив"
    INDEX 01 115:06:21
  TRACK 483 AUDIO
    TITLE "01:55:19.64664"
    PERFORMER "Владимир Михайлович Зазнобин. Видеоархив"
    INDEX 01 115:19:48
  TRACK 484 AUDIO
    TITLE "01:55:36.49683"
    PERFORMER "Владимир Михайлович Зазнобин. Видеоархив"
    INDEX 01 115:36:37
  TRACK 485 AUDIO
    TITLE "01:55:50.71433"
    PERFORMER "Владимир Михайлович Зазнобин. Видеоархив"
    INDEX 01 115:50:54
  TRACK 486 AUDIO
    TITLE "01:56:03.85304"
    PERFORMER "Владимир Михайлович Зазнобин. Видеоархив"
    INDEX 01 116:03:64
  TRACK 487 AUDIO
    TITLE "01:56:17.33494"
    PERFORMER "Владимир Михайлович Зазнобин. Видеоархив"
    INDEX 01 116:17:25
  TRACK 488 AUDIO
    TITLE "01:56:30.31202"
    PERFORMER "Владимир Михайлович Зазнобин. Видеоархив"
    INDEX 01 116:30:23
  TRACK 489 AUDIO
    TITLE "01:56:43.97737"
    PERFORMER "Владимир Михайлович Зазнобин. Видеоархив"
    INDEX 01 116:43:73
  TRACK 490 AUDIO
    TITLE "01:56:57.46810"
    PERFORMER "Владимир Михайлович Зазнобин. Видеоархив"
    INDEX 01 116:57:35
  TRACK 491 AUDIO
    TITLE "01:57:11.77011"
    PERFORMER "Владимир Михайлович Зазнобин. Видеоархив"
    INDEX 01 117:11:58
  TRACK 492 AUDIO
    TITLE "01:57:27.48576"
    PERFORMER "Владимир Михайлович Зазнобин. Видеоархив"
    INDEX 01 117:27:36
  TRACK 493 AUDIO
    TITLE "01:57:43.85810"
    PERFORMER "Владимир Михайлович Зазнобин. Видеоархив"
    INDEX 01 117:43:64
  TRACK 494 AUDIO
    TITLE "01:57:58.33612"
    PERFORMER "Владимир Михайлович Зазнобин. Видеоархив"
    INDEX 01 117:58:25
  TRACK 495 AUDIO
    TITLE "01:58:12.48814"
    PERFORMER "Владимир Михайлович Зазнобин. Видеоархив"
    INDEX 01 118:12:37
  TRACK 496 AUDIO
    TITLE "01:58:25.45410"
    PERFORMER "Владимир Михайлович Зазнобин. Видеоархив"
    INDEX 01 118:25:34
  TRACK 497 AUDIO
    TITLE "01:58:38.97361"
    PERFORMER "Владимир Михайлович Зазнобин. Видеоархив"
    INDEX 01 118:38:73
  TRACK 498 AUDIO
    TITLE "01:58:52.58367"
    PERFORMER "Владимир Михайлович Зазнобин. Видеоархив"
    INDEX 01 118:52:44
  TRACK 499 AUDIO
    TITLE "01:59:08.18882"
    PERFORMER "Владимир Михайлович Зазнобин. Видеоархив"
    INDEX 01 119:08:14
  TRACK 500 AUDIO
    TITLE "01:59:23.86406"
    PERFORMER "Владимир Михайлович Зазнобин. Видеоархив"
    INDEX 01 119:23:65
  TRACK 501 AUDIO
    TITLE "01:59:39.97306"
    PERFORMER "Владимир Михайлович Зазнобин. Видеоархив"
    INDEX 01 119:39:73
  TRACK 502 AUDIO
    TITLE "01:59:53.45172"
    PERFORMER "Владимир Михайлович Зазнобин. Видеоархив"
    INDEX 01 119:53:34
  TRACK 503 AUDIO
    TITLE "02:00:07.36503"
    PERFORMER "Владимир Михайлович Зазнобин. Видеоархив"
    INDEX 01 120:07:27
  TRACK 504 AUDIO
    TITLE "02:00:21.49200"
    PERFORMER "Владимир Михайлович Зазнобин. Видеоархив"
    INDEX 01 120:21:37
  TRACK 505 AUDIO
    TITLE "02:00:35.69277"
    PERFORMER "Владимир Михайлович Зазнобин. Видеоархив"
    INDEX 01 120:35:52
  TRACK 506 AUDIO
    TITLE "02:00:52.39621"
    PERFORMER "Владимир Михайлович Зазнобин. Видеоархив"
    INDEX 01 120:52:30
  TRACK 507 AUDIO
    TITLE "02:01:05.88229"
    PERFORMER "Владимир Михайлович Зазнобин. Видеоархив"
    INDEX 01 121:05:66
  TRACK 508 AUDIO
    TITLE "02:01:18.95458"
    PERFORMER "Владимир Михайлович Зазнобин. Видеоархив"
    INDEX 01 121:18:72
  TRACK 509 AUDIO
    TITLE "02:01:33.01372"
    PERFORMER "Владимир Михайлович Зазнобин. Видеоархив"
    INDEX 01 121:33:01
  TRACK 510 AUDIO
    TITLE "02:01:47.53959"
    PERFORMER "Владимир Михайлович Зазнобин. Видеоархив"
    INDEX 01 121:47:40
  TRACK 511 AUDIO
    TITLE "02:02:00.61794"
    PERFORMER "Владимир Михайлович Зазнобин. Видеоархив"
    INDEX 01 122:00:46
  TRACK 512 AUDIO
    TITLE "02:02:13.66190"
    PERFORMER "Владимир Михайлович Зазнобин. Видеоархив"
    INDEX 01 122:13:50
  TRACK 513 AUDIO
    TITLE "02:02:27.95510"
    PERFORMER "Владимир Михайлович Зазнобин. Видеоархив"
    INDEX 01 122:27:72
  TRACK 514 AUDIO
    TITLE "02:02:42.01844"
    PERFORMER "Владимир Михайлович Зазнобин. Видеоархив"
    INDEX 01 122:42:01
  TRACK 515 AUDIO
    TITLE "02:02:55.82959"
    PERFORMER "Владимир Михайлович Зазнобин. Видеоархив"
    INDEX 01 122:55:62
  TRACK 516 AUDIO
    TITLE "02:03:08.65204"
    PERFORMER "Владимир Михайлович Зазнобин. Видеоархив"
    INDEX 01 123:08:49
  TRACK 517 AUDIO
    TITLE "02:03:22.40143"
    PERFORMER "Владимир Михайлович Зазнобин. Видеоархив"
    INDEX 01 123:22:30
  TRACK 518 AUDIO
    TITLE "02:03:37.16785"
    PERFORMER "Владимир Михайлович Зазнобин. Видеоархив"
    INDEX 01 123:37:13
  TRACK 519 AUDIO
    TITLE "02:03:50.20950"
    PERFORMER "Владимир Михайлович Зазнобин. Видеоархив"
    INDEX 01 123:50:16
  TRACK 520 AUDIO
    TITLE "02:04:03.94125"
    PERFORMER "Владимир Михайлович Зазнобин. Видеоархив"
    INDEX 01 124:03:71
  TRACK 521 AUDIO
    TITLE "02:04:17.38971"
    PERFORMER "Владимир Михайлович Зазнобин. Видеоархив"
    INDEX 01 124:17:29
  TRACK 522 AUDIO
    TITLE "02:04:30.34032"
    PERFORMER "Владимир Михайлович Зазнобин. Видеоархив"
    INDEX 01 124:30:26
  TRACK 523 AUDIO
    TITLE "02:04:44.94608"
    PERFORMER "Владимир Михайлович Зазнобин. Видеоархив"
    INDEX 01 124:44:71
  TRACK 524 AUDIO
    TITLE "02:05:01.55059"
    PERFORMER "Владимир Михайлович Зазнобин. Видеоархив"
    INDEX 01 125:01:41
  TRACK 525 AUDIO
    TITLE "02:05:17.99025"
    PERFORMER "Владимир Михайлович Зазнобин. Видеоархив"
    INDEX 01 125:17:74
  TRACK 526 AUDIO
    TITLE "02:05:31.65789"
    PERFORMER "Владимир Михайлович Зазнобин. Видеоархив"
    INDEX 01 125:31:49
  TRACK 527 AUDIO
    TITLE "02:05:46.45544"
    PERFORMER "Владимир Михайлович Зазнобин. Видеоархив"
    INDEX 01 125:46:34
  TRACK 528 AUDIO
    TITLE "02:06:00.19136"
    PERFORMER "Владимир Михайлович Зазнобин. Видеоархив"
    INDEX 01 126:00:14
  TRACK 529 AUDIO
    TITLE "02:06:13.19492"
    PERFORMER "Владимир Михайлович Зазнобин. Видеоархив"
    INDEX 01 126:13:15
  TRACK 530 AUDIO
    TITLE "02:06:28.13458"
    PERFORMER "Владимир Михайлович Зазнобин. Видеоархив"
    INDEX 01 126:28:10
  TRACK 531 AUDIO
    TITLE "02:06:42.60426"
    PERFORMER "Владимир Михайлович Зазнобин. Видеоархив"
    INDEX 01 126:42:45
  TRACK 532 AUDIO
    TITLE "02:06:56.48878"
    PERFORMER "Владимир Михайлович Зазнобин. Видеоархив"
    INDEX 01 126:56:37
  TRACK 533 AUDIO
    TITLE "02:07:11.73726"
    PERFORMER "Владимир Михайлович Зазнобин. Видеоархив"
    INDEX 01 127:11:55
  TRACK 534 AUDIO
    TITLE "02:07:26.45909"
    PERFORMER "Владимир Михайлович Зазнобин. Видеоархив"
    INDEX 01 127:26:34
  TRACK 535 AUDIO
    TITLE "02:07:40.89161"
    PERFORMER "Владимир Михайлович Зазнобин. Видеоархив"
    INDEX 01 127:40:67
  TRACK 536 AUDIO
    TITLE "02:07:54.21655"
    PERFORMER "Владимир Михайлович Зазнобин. Видеоархив"
    INDEX 01 127:54:16
  TRACK 537 AUDIO
    TITLE "02:08:07.28002"
    PERFORMER "Владимир Михайлович Зазнобин. Видеоархив"
    INDEX 01 128:07:21
  TRACK 538 AUDIO
    TITLE "02:08:21.69073"
    PERFORMER "Владимир Михайлович Зазнобин. Видеоархив"
    INDEX 01 128:21:52
  TRACK 539 AUDIO
    TITLE "02:08:36.08562"
    PERFORMER "Владимир Михайлович Зазнобин. Видеоархив"
    INDEX 01 128:36:06
  TRACK 540 AUDIO
    TITLE "02:08:48.94338"
    PERFORMER "Владимир Михайлович Зазнобин. Видеоархив"
    INDEX 01 128:48:71
  TRACK 541 AUDIO
    TITLE "02:09:02.17542"
    PERFORMER "Владимир Михайлович Зазнобин. Видеоархив"
    INDEX 01 129:02:13
  TRACK 542 AUDIO
    TITLE "02:09:15.67265"
    PERFORMER "Владимир Михайлович Зазнобин. Видеоархив"
    INDEX 01 129:15:50
  TRACK 543 AUDIO
    TITLE "02:09:29.12993"
    PERFORMER "Владимир Михайлович Зазнобин. Видеоархив"
    INDEX 01 129:29:10
  TRACK 544 AUDIO
    TITLE "02:09:44.97701"
    PERFORMER "Владимир Михайлович Зазнобин. Видеоархив"
    INDEX 01 129:44:73
  TRACK 545 AUDIO
    TITLE "02:10:00.51667"
    PERFORMER "Владимир Михайлович Зазнобин. Видеоархив"
    INDEX 01 130:00:39
  TRACK 546 AUDIO
    TITLE "02:10:16.45986"
    PERFORMER "Владимир Михайлович Зазнобин. Видеоархив"
    INDEX 01 130:16:34
  TRACK 547 AUDIO
    TITLE "02:10:31.80587"
    PERFORMER "Владимир Михайлович Зазнобин. Видеоархив"
    INDEX 01 130:31:60
  TRACK 548 AUDIO
    TITLE "02:10:45.95231"
    PERFORMER "Владимир Михайлович Зазнобин. Видеоархив"
    INDEX 01 130:45:71
  TRACK 549 AUDIO
    TITLE "02:10:58.90063"
    PERFORMER "Владимир Михайлович Зазнобин. Видеоархив"
    INDEX 01 130:58:68
  TRACK 550 AUDIO
    TITLE "02:11:11.72771"
    PERFORMER "Владимир Михайлович Зазнобин. Видеоархив"
    INDEX 01 131:11:55
  TRACK 551 AUDIO
    TITLE "02:11:25.16551"
    PERFORMER "Владимир Михайлович Зазнобин. Видеоархив"
    INDEX 01 131:25:12
  TRACK 552 AUDIO
    TITLE "02:11:38.76211"
    PERFORMER "Владимир Михайлович Зазнобин. Видеоархив"
    INDEX 01 131:38:57
  TRACK 553 AUDIO
    TITLE "02:11:53.43379"
    PERFORMER "Владимир Михайлович Зазнобин. Видеоархив"
    INDEX 01 131:53:33
  TRACK 554 AUDIO
    TITLE "02:12:07.56120"
    PERFORMER "Владимир Михайлович Зазнобин. Видеоархив"
    INDEX 01 132:07:42
  TRACK 555 AUDIO
    TITLE "02:12:23.65349"
    PERFORMER "Владимир Михайлович Зазнобин. Видеоархив"
    INDEX 01 132:23:49
  TRACK 556 AUDIO
    TITLE "02:12:39.65336"
    PERFORMER "Владимир Михайлович Зазнобин. Видеоархив"
    INDEX 01 132:39:49
  TRACK 557 AUDIO
    TITLE "02:12:54.31111"
    PERFORMER "Владимир Михайлович Зазнобин. Видеоархив"
    INDEX 01 132:54:23
  TRACK 558 AUDIO
    TITLE "02:13:10.53063"
    PERFORMER "Владимир Михайлович Зазнобин. Видеоархив"
    INDEX 01 133:10:40
  TRACK 559 AUDIO
    TITLE "02:13:27.38129"
    PERFORMER "Владимир Михайлович Зазнобин. Видеоархив"
    INDEX 01 133:27:29
  TRACK 560 AUDIO
    TITLE "02:13:41.70839"
    PERFORMER "Владимир Михайлович Зазнобин. Видеоархив"
    INDEX 01 133:41:53
  TRACK 561 AUDIO
    TITLE "02:13:57.08596"
    PERFORMER "Владимир Михайлович Зазнобин. Видеоархив"
    INDEX 01 133:57:06
  TRACK 562 AUDIO
    TITLE "02:14:12.53134"
    PERFORMER "Владимир Михайлович Зазнобин. Видеоархив"
    INDEX 01 134:12:40
  TRACK 563 AUDIO
    TITLE "02:14:29.00583"
    PERFORMER "Владимир Михайлович Зазнобин. Видеоархив"
    INDEX 01 134:29:00
  TRACK 564 AUDIO
    TITLE "02:14:43.91252"
    PERFORMER "Владимир Михайлович Зазнобин. Видеоархив"
    INDEX 01 134:43:68
  TRACK 565 AUDIO
    TITLE "02:15:01.16626"
    PERFORMER "Владимир Михайлович Зазнобин. Видеоархив"
    INDEX 01 135:01:12
  TRACK 566 AUDIO
    TITLE "02:15:15.00853"
    PERFORMER "Владимир Михайлович Зазнобин. Видеоархив"
    INDEX 01 135:15:01
  TRACK 567 AUDIO
    TITLE "02:15:28.33113"
    PERFORMER "Владимир Михайлович Зазнобин. Видеоархив"
    INDEX 01 135:28:25
